<?xml version="1.0" encoding="UTF-8" standalone="no"?><!DOCTYPE svg PUBLIC "-//W3C//DTD SVG 1.1//EN" "http://www.w3.org/Graphics/SVG/1.1/DTD/svg11.dtd"><svg width="100%" height="100%" viewBox="0 0 1000 1000" version="1.1" xmlns="http://www.w3.org/2000/svg" xmlns:xlink="http://www.w3.org/1999/xlink" xml:space="preserve" xmlns:serif="http://www.serif.com/" style="fill-rule:evenodd;clip-rule:evenodd;stroke-linejoin:round;stroke-miterlimit:2;"><rect id="Desactivados" x="0" y="0" width="1000" height="1000" style="fill:none;"/><g id="Desactivados1" serif:id="Desactivados"><path d="M899.389,483.934c6.998,-9.909 19.606,-14.147 31.168,-10.476c11.562,3.671 19.417,14.406 19.417,26.537c0.026,0.002 0.026,0.004 0.026,0.005c0,248.362 -201.638,450 -450,450c-248.362,0 -450,-201.638 -450,-450c0,-248.362 201.638,-450 450,-450c0.002,0 0.004,0 0.005,0c12.142,0 22.887,7.862 26.561,19.435c3.674,11.573 -0.567,24.193 -10.485,31.197c-70.23,49.825 -116.081,131.784 -116.081,224.368c0,151.777 123.223,275 275,275c92.584,0 174.543,-45.852 224.389,-116.066Z"/></g></svg>