<?xml version="1.0" encoding="UTF-8" standalone="no"?><!DOCTYPE svg PUBLIC "-//W3C//DTD SVG 1.1//EN" "http://www.w3.org/Graphics/SVG/1.1/DTD/svg11.dtd"><svg width="100%" height="100%" viewBox="0 0 1000 1000" version="1.1" xmlns="http://www.w3.org/2000/svg" xmlns:xlink="http://www.w3.org/1999/xlink" xml:space="preserve" xmlns:serif="http://www.serif.com/" style="fill-rule:evenodd;clip-rule:evenodd;stroke-linejoin:round;stroke-miterlimit:2;"><path d="M100,950c-13.261,0 -25.979,-5.268 -35.355,-14.645c-9.377,-9.377 -14.645,-22.095 -14.645,-35.355l0,-350c0,-13.261 5.268,-25.979 14.645,-35.355c9.377,-9.377 22.095,-14.645 35.355,-14.645l49.946,0c-16.069,-38.487 -24.946,-80.715 -24.946,-125c0,-159.223 114.747,-291.856 265.987,-319.646c14.595,-2.675 29.624,1.271 41.022,10.77c11.399,9.499 17.989,23.571 17.989,38.409c0.002,32.363 0.002,72.798 0.002,102.817c0,22.075 -14.477,41.538 -35.62,47.887c-51.67,15.285 -89.38,63.154 -89.38,119.762c0,68.989 56.011,125 125,125l100,0c68.989,0 125,-56.011 125,-125c0,-56.608 -37.71,-104.477 -89.358,-119.836c-21.11,-6.339 -35.564,-25.772 -35.564,-47.813c-0.078,-30.019 -0.078,-70.454 -0.078,-102.817c0,-14.838 6.591,-28.91 17.989,-38.41c11.399,-9.5 26.428,-13.446 41.024,-10.771c151.239,27.791 265.987,160.425 265.987,319.647c0,44.285 -8.876,86.513 -24.946,125l49.946,0c13.261,0 25.979,5.268 35.355,14.645c9.377,9.377 14.645,22.095 14.645,35.355l0,350c0,13.261 -5.268,25.979 -14.645,35.355c-9.377,9.377 -22.095,14.645 -35.355,14.645l-100,0c-13.261,0 -25.979,-5.268 -35.355,-14.645c-9.377,-9.377 -14.645,-22.095 -14.645,-35.355l0,-200l-150,0l0,200c0,13.261 -5.268,25.979 -14.645,35.355c-9.377,9.377 -22.095,14.645 -35.355,14.645l-100,0c-13.261,0 -25.979,-5.268 -35.355,-14.645c-9.377,-9.377 -14.645,-22.095 -14.645,-35.355l0,-200l-150,0l0,200c0,13.261 -5.268,25.979 -14.645,35.355c-9.377,9.377 -22.095,14.645 -35.355,14.645l-100,0l-0,0.001Z"/></svg>