<?xml version="1.0" encoding="UTF-8" standalone="no"?><!DOCTYPE svg PUBLIC "-//W3C//DTD SVG 1.1//EN" "http://www.w3.org/Graphics/SVG/1.1/DTD/svg11.dtd"><svg width="100%" height="100%" viewBox="0 0 1000 1000" version="1.1" xmlns="http://www.w3.org/2000/svg" xmlns:xlink="http://www.w3.org/1999/xlink" xml:space="preserve" xmlns:serif="http://www.serif.com/" style="fill-rule:evenodd;clip-rule:evenodd;stroke-linejoin:round;stroke-miterlimit:2;"><path d="M900,100c27.614,0 50,22.386 50,50c0,27.614 -22.386,50 -50,50l-250,0l0,50l250,0c13.261,0 25.979,5.268 35.355,14.645c9.377,9.377 14.645,22.095 14.645,35.355l0,150c0,13.261 -5.268,25.979 -14.645,35.355c-9.377,9.377 -22.095,14.645 -35.355,14.645l-250,0l0,50l274.094,0c6.63,0 12.989,2.634 17.678,7.322c4.688,4.688 7.322,11.047 7.322,17.678c0,6.63 -2.634,12.989 -7.322,17.678c-4.688,4.688 -11.047,7.322 -17.678,7.322l-274.094,0l0,50l274.094,0c6.63,0 12.989,2.634 17.678,7.322c4.688,4.688 7.322,11.047 7.322,17.678c0,6.63 -2.634,12.989 -7.322,17.678c-4.688,4.688 -11.047,7.322 -17.678,7.322l-274.094,0l0,50l263.748,0c20.021,0 36.252,16.231 36.252,36.252l0,12.691c-4.834,40.483 -10.272,61.631 -16.314,82.175c-8.459,45.921 -42.9,68.882 -103.323,68.882l-210.272,0c-67.069,0 -120.091,-39.275 -120.091,-117.825l0,-382.175c0,-13.261 5.268,-25.979 14.645,-35.355c9.377,-9.377 22.095,-14.645 35.355,-14.645l300,0l0,-50l-300,0c-27.614,0 -50,-22.386 -50,-50l0,-200c0,-27.614 22.386,-50 50,-50l50,0c27.614,0 50,22.386 50,50l250,0Zm-700,800c0,13.261 -5.268,25.979 -14.645,35.355c-9.377,9.377 -22.095,14.645 -35.355,14.645l-50,0c-13.261,0 -25.979,-5.268 -35.355,-14.645c-9.377,-9.377 -14.645,-22.095 -14.645,-35.355l0,-400c0,-13.261 5.268,-25.979 14.645,-35.355c9.377,-9.377 22.095,-14.645 35.355,-14.645l309.668,0c13.261,0 25.979,5.268 35.355,14.645c9.377,9.377 14.645,22.095 14.645,35.355l0,333.082c0,77.341 -27.492,116.314 -82.477,116.918l-66.123,0c-24.192,0 -44.915,-17.321 -49.207,-41.129c-0.51,-2.961 -1.085,-5.942 -1.681,-8.951c-2.807,-14.585 1.022,-29.662 10.448,-41.141c9.425,-11.479 23.47,-18.168 38.322,-18.252c5.395,0.011 10.317,-0.046 14.766,-0.195c20.544,0 26.284,-14.35 26.284,-38.52l0,-51.813l-150,0l-0,150.001Zm-150,-550c0,-27.614 22.386,-50 50,-50l39.728,0c0,-0.001 -0.001,-0.001 -0.001,-0.002c-4.8,-10.799 -3.811,-23.294 2.629,-33.203c6.44,-9.909 17.456,-15.888 29.274,-15.888l24.222,0c16.746,0 32.381,8.384 41.647,22.333c4.866,7.262 10.04,15.189 15.522,26.761l52.568,0c6.065,-12.449 11.793,-20.809 17.184,-28.51c9.343,-13.46 24.688,-21.488 41.072,-21.488c6.87,-0.003 14.536,-0.003 22.398,-0.003c11.913,0 22.924,6.341 28.904,16.645c5.979,10.303 6.022,23.011 0.111,33.353c0,0.001 -0.001,0.001 -0.001,0.002l26.133,0c27.614,0 50,22.386 50,50c0,27.614 -22.386,50 -50,50l-341.39,0c-27.614,0 -50,-22.386 -50,-50Zm26.284,-199.701c0,-13.285 5.318,-26.016 14.768,-35.354c9.45,-9.337 22.244,-14.503 35.528,-14.345c34.257,0.409 73.421,0.877 73.421,0.877c-2.216,-7.051 -2.081,-12.771 -1.208,-18.049c3.191,-19.285 19.867,-33.429 39.414,-33.429l60.531,0c24.372,0 45.194,17.573 49.289,41.599c0.468,2.739 1.115,5.689 1.974,8.879c0,0 43.04,-0.159 79.515,-0.293c13.268,-0.049 26.01,5.188 35.409,14.552c9.399,9.365 14.683,22.087 14.683,35.355l0,0.002c0,27.562 -22.344,49.906 -49.906,49.906l-303.719,0c-27.447,0 -49.698,-22.251 -49.698,-49.698l0,-0.003l-0.001,0.001Zm623.716,699.701l100,0c24.169,0 46.36,-10.876 48.172,-31.42c0.604,-5.438 0.619,-13.746 1.828,-18.58l-186.707,0l-13.293,0.906c0,24.169 27.644,49.094 50,49.094Zm-350,-350l-150,0l0,50l150,0l0,-50Zm-150.604,200l150,0l0.604,-50l-150,0l-0.604,50Z" style="fill-rule:nonzero;"/></svg>