<?xml version="1.0" encoding="UTF-8" standalone="no"?><!DOCTYPE svg PUBLIC "-//W3C//DTD SVG 1.1//EN" "http://www.w3.org/Graphics/SVG/1.1/DTD/svg11.dtd"><svg width="100%" height="100%" viewBox="0 0 4167 4167" version="1.1" xmlns="http://www.w3.org/2000/svg" xmlns:xlink="http://www.w3.org/1999/xlink" xml:space="preserve" xmlns:serif="http://www.serif.com/" style="fill-rule:evenodd;clip-rule:evenodd;stroke-linejoin:round;stroke-miterlimit:2;"><rect id="Usuarios" x="0" y="0" width="4166.667" height="4166.667" style="fill:none;"/><g id="Usuarios1" serif:id="Usuarios"><path d="M416.667,3958.333c-55.253,0 -108.244,-21.949 -147.314,-61.019c-39.07,-39.07 -61.019,-92.061 -61.019,-147.314c-0,-160.106 -0,-375.47 -0,-507.044c-0,-73.18 38.396,-140.994 101.147,-178.644c218.95,-131.37 730.044,-438.027 891.038,-534.623c32.378,-19.427 69.427,-29.689 107.186,-29.689c256.809,0 1294.447,0 1551.257,0c37.759,0 74.808,10.262 107.186,29.689c160.994,96.596 672.088,403.253 891.038,534.623c62.751,37.651 101.147,105.465 101.147,178.644c0,131.574 0,346.938 0,507.044c0,55.253 -21.949,108.244 -61.019,147.314c-39.07,39.07 -92.061,61.019 -147.314,61.019c-656.414,-0 -2676.919,-0 -3333.333,-0Z"/><circle cx="2083.333" cy="1250" r="1041.667"/></g></svg>