<?xml version="1.0" encoding="UTF-8" standalone="no"?><!DOCTYPE svg PUBLIC "-//W3C//DTD SVG 1.1//EN" "http://www.w3.org/Graphics/SVG/1.1/DTD/svg11.dtd"><svg width="100%" height="100%" viewBox="0 0 1200 750" version="1.1" xmlns="http://www.w3.org/2000/svg" xmlns:xlink="http://www.w3.org/1999/xlink" xml:space="preserve" xmlns:serif="http://www.serif.com/" style="fill-rule:evenodd;clip-rule:evenodd;stroke-linejoin:round;stroke-miterlimit:2;"><rect id="CityD1" x="0" y="0" width="1200" height="750" style="fill:none;"/><g id="CityD11" serif:id="CityD1"><g><path d="M345.933,524.438l-335.906,0c0,0 -10.027,-0.625 -10.027,-10.027c0,-9.402 10.027,-10.027 10.027,-10.027c0,0 39.888,0.22 50.135,-10.027c10.247,-10.247 30.045,-20.054 40.108,-20.054c10.063,0 26.739,10.027 40.108,10.027c13.369,0 30.045,-10.027 40.108,-10.027c10.063,0 29.861,9.807 40.108,20.054c10.247,10.247 50.135,10.027 50.135,10.027c0,0 10.027,0.625 10.027,10.027l65.176,0c1.33,-0 2.605,0.528 3.545,1.468c0.94,0.94 1.468,2.215 1.468,3.545c-0,1.33 -0.528,2.605 -1.468,3.545c-0.94,0.94 -2.215,1.468 -3.545,1.468Z"/><path d="M1144.986,99.438l-335.906,0c0,0 -10.027,-0.625 -10.027,-10.027c0,-9.402 10.027,-10.027 10.027,-10.027c0,0 39.888,0.22 50.135,-10.027c10.247,-10.247 30.045,-20.054 40.108,-20.054c10.063,0 26.739,10.027 40.108,10.027c13.369,0 30.045,-10.027 40.108,-10.027c10.063,0 29.861,9.807 40.108,20.054c10.247,10.247 50.135,10.027 50.135,10.027c0,0 10.027,0.625 10.027,10.027l65.176,0c1.33,-0 2.605,0.528 3.545,1.468c0.94,0.94 1.468,2.215 1.468,3.545c-0,1.33 -0.528,2.605 -1.468,3.545c-0.94,0.94 -2.215,1.468 -3.545,1.468Z"/><path d="M1194.986,399.641l-335.906,0c0,0 -10.027,-0.625 -10.027,-10.027c0,-9.402 10.027,-10.027 10.027,-10.027c0,0 39.888,0.22 50.135,-10.027c10.247,-10.247 30.045,-20.054 40.108,-20.054c10.063,0 26.739,10.027 40.108,10.027c13.369,0 30.045,-10.027 40.108,-10.027c10.063,0 29.861,9.807 40.108,20.054c10.247,10.247 50.135,10.027 50.135,10.027c0,0 10.027,0.625 10.027,10.027l65.176,0c1.33,-0 2.605,0.528 3.545,1.468c0.94,0.94 1.468,2.215 1.468,3.545c-0,1.33 -0.528,2.605 -1.468,3.545c-0.94,0.94 -2.215,1.468 -3.545,1.468Z"/><path d="M125.322,399.305c-3.887,-0.304 -25,-0.789 -25,-25c0,-24.211 25,-25 25,-25c0,0 25,2.659 25,25c0,0 24.999,-75 75,-75c50.001,0 75,75 75,75c0,0 75.509,-25 100,-25c24.491,0 50,1.531 50,25c0,0 68.931,-22.937 74.627,19.185c0.208,1.452 -0.224,2.923 -1.184,4.032c-0.961,1.109 -2.355,1.746 -3.823,1.746c-47.327,0.076 -391,0.32 -394.62,0.037Z"/><path d="M575.322,274.845c-3.887,-0.304 -25,-0.789 -25,-25c0,-24.211 25,-25 25,-25c0,0 25,2.659 25,25c0,0 24.999,-75 75,-75c50.001,0 75,75 75,75c0,0 75.509,-25 100,-25c24.491,0 50,1.531 50,25c0,0 68.931,-22.937 74.627,19.185c0.208,1.452 -0.224,2.923 -1.184,4.032c-0.961,1.109 -2.355,1.746 -3.823,1.746c-47.327,0.076 -391,0.32 -394.62,0.037Z"/><path d="M347.105,100.112c0,0 -0.05,-20.289 10.145,-20.289c10.195,0 10.145,10.145 10.145,10.145c0,0 10.191,-10.145 30.434,-10.145c20.244,0 31.351,-20.289 40.579,-20.289c9.228,0 10.145,10.145 10.145,10.145c0,0 26.458,-19.701 40.579,-19.701c20.292,0 60.868,-0.351 60.868,50.135l-202.895,0Z"/><path d="M550,524.438c0,0 -0.05,-20.289 10.145,-20.289c10.195,0 10.145,10.145 10.145,10.145c0,0 10.191,-10.145 30.434,-10.145c20.244,0 31.351,-20.289 40.579,-20.289c9.228,0 10.145,10.145 10.145,10.145c0,0 26.458,-19.701 40.579,-19.701c20.292,0 60.868,-0.351 60.868,50.135l-202.895,0Z"/><path d="M451.217,174.573l-451.217,0c0,0 50.135,-0.061 50.135,-12.534c0,-12.472 14.112,-25.068 37.601,-25.068c23.489,0 50.135,25.068 50.135,25.068c0,0 38.484,-37.601 75.203,-37.601l25.068,0c36.719,0 75.203,37.601 75.203,37.601c0,0 26.646,-12.534 50.135,-12.534c23.489,0 33.809,9.086 37.601,12.534c9.228,8.391 50.135,12.534 50.135,12.534Z"/><path d="M1126.217,524.303l-451.217,0c0,0 50.135,-0.061 50.135,-12.534c0,-12.472 14.112,-25.068 37.601,-25.068c23.489,0 50.135,25.068 50.135,25.068c0,0 38.484,-37.601 75.203,-37.601l25.068,0c36.719,0 75.203,37.601 75.203,37.601c0,0 26.646,-12.534 50.135,-12.534c23.489,0 33.809,9.086 37.601,12.534c9.228,8.391 50.135,12.534 50.135,12.534Z"/><path d="M410.675,274.979c-1.491,0.001 -2.772,-1.059 -3.049,-2.523c-0.277,-1.465 0.527,-2.92 1.916,-3.463c0.716,-0.14 1.513,-0.28 2.45,-0.28c6.269,0 6.267,0 6.267,0c0,0 6.518,-6.377 18.801,0c0,0 0.451,-6.267 6.267,-6.267c5.816,0 12.96,6.267 18.801,6.267c5.841,0 6.267,-6.267 6.267,-6.267c0,0 6.219,-18.801 18.801,-18.801c12.582,0 18.801,12.534 18.801,12.534c0,0 -0.611,-25.068 12.534,-25.068c13.145,0 18.801,6.267 18.801,6.267c0,0 0.383,-12.534 12.534,-12.534c12.15,0 12.534,12.5 12.534,12.5c0,0 18.801,0.147 18.801,12.568c0,0 18.801,-0.111 18.801,12.534c0,12.645 -18.801,12.534 -18.801,12.534l-170.524,0Z"/></g></g></svg>