<?xml version="1.0" encoding="UTF-8" standalone="no"?><!DOCTYPE svg PUBLIC "-//W3C//DTD SVG 1.1//EN" "http://www.w3.org/Graphics/SVG/1.1/DTD/svg11.dtd"><svg width="100%" height="100%" viewBox="0 0 1200 750" version="1.1" xmlns="http://www.w3.org/2000/svg" xmlns:xlink="http://www.w3.org/1999/xlink" xml:space="preserve" xmlns:serif="http://www.serif.com/" style="fill-rule:evenodd;clip-rule:evenodd;stroke-linejoin:round;stroke-miterlimit:2;"><rect id="CityC" x="0" y="0" width="1200" height="750" style="fill:none;"/><path d="M1200,750l-1200,0l0,-550l75,0l0,37.5l37.5,12.5l0,287.5l37.5,0l0,-237.5l12.5,-12.5l0,-62.5l112.5,0l0,-25l75,0l0,325l37.5,0l0,-237.5l12.5,-12.5l86.124,0l1.376,-25l12.5,-12.5l75.39,0l0,-37.5l87.11,0l0,387.5l87.5,0l0,-325l37.5,-12.5l0,-50l37.5,0l0,25l62.5,0l0,337.5l25.827,0l0,-175l24.173,0l0,-37.5l25,0l0,-150l125,0l0,62.5l100,0l0,50l12.5,12.5l0,425Z"/></svg>