<?xml version="1.0" encoding="UTF-8" standalone="no"?><!DOCTYPE svg PUBLIC "-//W3C//DTD SVG 1.1//EN" "http://www.w3.org/Graphics/SVG/1.1/DTD/svg11.dtd"><svg width="100%" height="100%" viewBox="0 0 1200 750" version="1.1" xmlns="http://www.w3.org/2000/svg" xmlns:xlink="http://www.w3.org/1999/xlink" xml:space="preserve" xmlns:serif="http://www.serif.com/" style="fill-rule:evenodd;clip-rule:evenodd;stroke-linejoin:round;stroke-miterlimit:2;"><rect id="CityA" x="0" y="0" width="1200" height="750" style="fill:none;"/><path d="M1200,750l-1200,-0l-0,-162.5l62.5,0l25,25l0,25l37.5,0l0,75l25,0l0,-125l37.5,0l0,-37.5l75,0l0,50l25,0l0,-50l62.5,37.5l0,62.5l25,0l50,-37.5l0,-50l25,0l0,-12.5l87.5,0l0,25l25,25l0,25l50,0l0,-25l12.5,-12.5l50,0l0,-37.5l50,0l0,-12.5l12.5,-3.109l0,15.609l13.118,0l-0.618,37.5l25,0l0,50l12.5,0l0,-62.5l62.5,-25l0,150l25,0l0,-150l75,0l0,-125l37.5,0l37.5,25l37.5,0l0,125l37.5,37.5l0,75l25,0l0,-137.5l75,0l0,200Z"/></svg>