<?xml version="1.0" encoding="UTF-8" standalone="no"?><!DOCTYPE svg PUBLIC "-//W3C//DTD SVG 1.1//EN" "http://www.w3.org/Graphics/SVG/1.1/DTD/svg11.dtd"><svg width="100%" height="100%" viewBox="0 0 1200 750" version="1.1" xmlns="http://www.w3.org/2000/svg" xmlns:xlink="http://www.w3.org/1999/xlink" xml:space="preserve" xmlns:serif="http://www.serif.com/" style="fill-rule:evenodd;clip-rule:evenodd;stroke-linejoin:round;stroke-miterlimit:2;"><rect id="CityD2" x="0" y="0" width="1200" height="750" style="fill:none;"/><clipPath id="_clip1"><rect id="CityD21" serif:id="CityD2" x="0" y="0" width="1200" height="750"/></clipPath><g clip-path="url(#_clip1)"><path d="M397.177,132.157l-12.584,-0.878l12.589,-0.795l0.875,-12.584l0.797,12.589l12.584,0.875l-12.59,0.798l-0.877,12.581l-0.795,-12.586Zm-345.015,78.873l-12.584,-0.878l12.589,-0.795l0.875,-12.584l0.795,12.589l12.584,0.875l-12.59,0.798l-0.875,12.581l-0.795,-12.586Zm53.299,-117.767l-12.584,-0.878l12.589,-0.795l0.875,-12.584l0.797,12.589l12.584,0.875l-12.59,0.798l-0.875,12.581l-0.797,-12.586Zm853.758,-68.78l-12.576,-0.878l12.582,-0.795l0.88,-12.584l0.804,12.591l12.576,0.876l-12.582,0.796l-0.88,12.582l-0.804,-12.586Zm210.577,142.263l-12.592,-0.878l12.598,-0.795l0.88,-12.584l0.789,12.589l12.591,0.875l-12.598,0.798l-0.88,12.581l-0.789,-12.586Zm-949.411,337.531l-12.583,-0.878l12.588,-0.797l0.877,-12.582l0.795,12.588l12.585,0.878l-12.591,0.797l-0.873,12.581l-0.798,-12.586Zm196.697,-9.198l-12.585,-0.878l12.591,-0.795l0.875,-12.582l0.795,12.588l12.584,0.877l-12.59,0.797l-0.875,12.582l-0.795,-12.588Zm-33.328,28.439l-12.584,-0.88l12.589,-0.794l0.875,-12.582l0.797,12.588l12.584,0.877l-12.59,0.797l-0.877,12.581l-0.795,-12.586Zm577.664,-390.468l-12.592,-0.88l12.598,-0.794l0.88,-12.582l0.789,12.588l12.591,0.877l-12.598,0.797l-0.88,12.58l-0.789,-12.586Zm-611.283,19.239l-12.585,-0.878l12.591,-0.795l0.874,-12.582l0.797,12.588l12.582,0.877l-12.588,0.797l-0.877,12.579l-0.794,-12.585Zm525.602,237.286l-6.32,-0.442l6.323,-0.4l0.44,-6.312l0.395,6.315l6.32,0.44l-6.323,0.4l-0.44,6.311l-0.394,-6.313Zm-77.517,-143.906l-6.32,-0.442l6.322,-0.4l0.423,-6.311l0.411,6.316l6.305,0.441l-6.307,0.399l-0.441,6.311l-0.393,-6.313Zm-147.087,94.697l-6.314,-0.441l6.317,-0.399l0.44,-6.312l0.399,6.315l6.312,0.44l-6.315,0.401l-0.44,6.309l-0.399,-6.312Zm9.899,118.42l-6.314,-0.441l6.317,-0.399l0.44,-6.312l0.399,6.315l6.312,0.44l-6.315,0.401l-0.44,6.311l-0.399,-6.314Zm-177.241,-435.611l-6.316,-0.442l6.318,-0.398l0.438,-6.312l0.401,6.315l6.311,0.438l-6.314,0.4l-0.44,6.311l-0.399,-6.313Zm-262.092,-6.734l-6.315,-0.442l6.318,-0.398l0.438,-6.312l0.399,6.315l6.312,0.44l-6.315,0.399l-0.44,6.311l-0.398,-6.313Zm464.76,6.287l-6.315,-0.442l6.318,-0.399l0.438,-6.312l0.399,6.315l6.312,0.44l-6.315,0.401l-0.44,6.311l-0.398,-6.313Zm-303.176,83.311l-6.315,-0.442l6.318,-0.399l0.438,-6.312l0.399,6.315l6.312,0.44l-6.315,0.401l-0.44,6.311l-0.397,-6.313Zm553.42,-6.733l-6.305,-0.441l6.307,-0.399l0.44,-6.313l0.41,6.315l6.305,0.44l-6.307,0.4l-0.44,6.311l-0.41,-6.314Zm37.358,230.647l-6.32,-0.442l6.323,-0.4l0.44,-6.312l0.395,6.316l6.304,0.439l-6.307,0.4l-0.44,6.311l-0.394,-6.313Zm156.28,89.391l-6.305,-0.441l6.307,-0.397l0.44,-6.312l0.41,6.315l6.305,0.438l-6.307,0.4l-0.44,6.311l-0.41,-6.314Zm-82.209,-222.215l-6.32,-0.442l6.323,-0.4l0.44,-6.312l0.394,6.315l6.32,0.44l-6.323,0.4l-0.44,6.311l-0.394,-6.313Zm122.528,-184.92l-6.32,-0.441l6.323,-0.399l0.44,-6.313l0.395,6.314l6.32,0.441l-6.323,0.401l-0.44,6.31l-0.394,-6.314Zm-897.157,297.588l-6.315,-0.442l6.318,-0.399l0.438,-6.312l0.401,6.315l6.312,0.44l-6.315,0.4l-0.441,6.311l-0.397,-6.313Zm-62.089,127.538l-6.316,-0.442l6.318,-0.398l0.438,-6.312l0.401,6.315l6.312,0.44l-6.315,0.399l-0.438,6.311l-0.401,-6.313Zm66.718,-361.575l-6.314,-0.441l6.317,-0.399l0.438,-6.312l0.401,6.315l6.312,0.44l-6.315,0.401l-0.438,6.311l-0.401,-6.314Zm294.84,57.766l-6.315,-0.442l6.318,-0.398l0.438,-6.314l0.401,6.317l6.311,0.438l-6.314,0.4l-0.441,6.311l-0.398,-6.313Zm-480.513,-23.25l-6.315,-0.442l6.318,-0.399l0.438,-6.312l0.399,6.315l6.312,0.44l-6.315,0.401l-0.441,6.311l-0.396,-6.313Zm6.734,309.068l-6.315,-0.442l6.318,-0.398l0.438,-6.312l0.399,6.315l6.312,0.438l-6.315,0.401l-0.44,6.311l-0.398,-6.313Zm-84.357,105.415l-6.316,-0.443l6.318,-0.398l0.438,-6.312l0.401,6.315l6.311,0.44l-6.314,0.4l-0.441,6.309l-0.397,-6.312Zm816.926,-449.445l-6.32,-0.442l6.323,-0.4l0.44,-6.312l0.395,6.315l6.32,0.44l-6.323,0.4l-0.44,6.311l-0.394,-6.313Zm-129.225,51.48l-6.316,-0.442l6.318,-0.398l0.438,-6.314l0.401,6.317l6.311,0.438l-6.314,0.4l-0.44,6.311l-0.399,-6.313Zm-300.021,249.314l-6.314,-0.441l6.317,-0.399l0.438,-6.312l0.401,6.315l6.312,0.44l-6.315,0.401l-0.438,6.311l-0.401,-6.314Zm118.998,263.317l-6.314,-0.441l6.317,-0.399l0.438,-6.314l0.401,6.317l6.312,0.44l-6.315,0.401l-0.44,6.309l-0.399,-6.312Zm418.555,-578.95l-6.305,-0.441l6.307,-0.399l0.44,-6.314l0.41,6.317l6.305,0.44l-6.307,0.4l-0.44,6.311l-0.41,-6.314Zm-284.898,549.683l-6.315,-0.442l6.318,-0.399l0.438,-6.312l0.399,6.315l6.312,0.44l-6.315,0.401l-0.44,6.309l-0.397,-6.312Zm304.928,-132.522l-6.32,-0.442l6.322,-0.4l0.425,-6.312l0.41,6.316l6.305,0.44l-6.307,0.4l-0.44,6.309l-0.394,-6.311Zm-240.062,183.512l-6.314,-0.441l6.317,-0.398l0.438,-6.312l0.401,6.315l6.312,0.44l-6.315,0.399l-0.44,6.311l-0.399,-6.314Zm-84.866,-344.202l-12.581,-0.878l12.586,-0.795l0.878,-12.582l0.794,12.588l12.585,0.877l-12.591,0.797l-0.873,12.581l-0.798,-12.587Zm246.856,206.57l-12.576,-0.878l12.582,-0.795l0.88,-12.582l0.789,12.588l12.591,0.877l-12.597,0.797l-0.865,12.582l-0.804,-12.588Zm268.063,46.973l-12.592,-0.878l12.597,-0.797l0.865,-12.582l0.804,12.588l12.576,0.877l-12.582,0.798l-0.879,12.581l-0.789,-12.586Zm0.89,-180.05l-12.592,-0.88l12.598,-0.795l0.88,-12.582l0.789,12.588l12.591,0.877l-12.598,0.798l-0.88,12.581l-0.789,-12.586Zm-930.134,79.174c0,0.481 -0.39,0.87 -0.872,0.87c-0.481,0 -0.871,-0.39 -0.871,-0.87c0,-0.482 0.39,-0.872 0.871,-0.872c0.482,0 0.872,0.39 0.872,0.872Zm47.21,-239.795c0,0.481 -0.388,0.87 -0.87,0.87c-0.481,0 -0.871,-0.39 -0.871,-0.87c0,-0.482 0.39,-0.872 0.871,-0.872c0.482,0 0.87,0.39 0.87,0.872Zm54.949,49.409c0,0.481 -0.393,0.87 -0.874,0.87c-0.479,0 -0.87,-0.39 -0.87,-0.87c0,-0.482 0.392,-0.872 0.87,-0.872c0.481,0 0.874,0.39 0.874,0.872Zm49.037,-59.865c0,0.481 -0.392,0.87 -0.872,0.87c-0.481,0 -0.87,-0.39 -0.87,-0.87c0,-0.482 0.39,-0.872 0.87,-0.872c0.481,0 0.872,0.39 0.872,0.872Zm134.042,103.461c0,0.481 -0.39,0.87 -0.871,0.87c-0.481,0 -0.872,-0.39 -0.872,-0.87c0,-0.482 0.392,-0.872 0.872,-0.872c0.481,0 0.871,0.39 0.871,0.872Zm0.872,-263.637c0,0.481 -0.392,0.87 -0.872,0.87c-0.481,0 -0.871,-0.39 -0.871,-0.87c0,-0.482 0.39,-0.872 0.871,-0.872c0.481,0 0.872,0.39 0.872,0.872Zm108.549,137.525c0,0.481 -0.392,0.87 -0.871,0.87c-0.481,0 -0.874,-0.39 -0.874,-0.87c0,-0.482 0.393,-0.872 0.874,-0.872c0.479,0 0.871,0.39 0.871,0.872Zm47.689,-51.966c0,0.481 -0.39,0.871 -0.871,0.871c-0.481,0 -0.872,-0.39 -0.872,-0.871c0,-0.482 0.392,-0.872 0.872,-0.872c0.481,0 0.871,0.39 0.871,0.872Zm44.424,51.094c0,0.481 -0.39,0.87 -0.87,0.87c-0.481,0 -0.872,-0.39 -0.872,-0.87c0,-0.481 0.392,-0.872 0.872,-0.872c0.481,0 0.87,0.392 0.87,0.872Zm-65.28,-120.046c0,0.479 -0.39,0.87 -0.87,0.87c-0.481,0 -0.872,-0.392 -0.872,-0.87c0,-0.482 0.392,-0.872 0.872,-0.872c0.481,0 0.87,0.39 0.87,0.872Zm41.294,-17.479c0,0.481 -0.39,0.87 -0.871,0.87c-0.481,0 -0.872,-0.39 -0.872,-0.87c0,-0.482 0.392,-0.872 0.872,-0.872c0.481,0 0.871,0.39 0.871,0.872Zm-11.509,-11.402c0,0.479 -0.392,0.869 -0.87,0.869c-0.481,0 -0.874,-0.39 -0.874,-0.869c0,-0.482 0.393,-0.874 0.874,-0.874c0.479,0 0.87,0.392 0.87,0.874Zm-30.655,6.412c0,0.481 -0.39,0.87 -0.871,0.87c-0.479,0 -0.872,-0.39 -0.872,-0.87c0,-0.482 0.393,-0.872 0.872,-0.872c0.481,0 0.871,0.39 0.871,0.872Zm96.057,41.75c0,0.481 -0.392,0.87 -0.872,0.87c-0.479,0 -0.872,-0.39 -0.872,-0.87c0,-0.482 0.393,-0.872 0.872,-0.872c0.481,0 0.872,0.39 0.872,0.872Zm53.823,-41.75c0,0.481 -0.387,0.87 -0.856,0.87c-0.485,0 -0.874,-0.39 -0.874,-0.87c0,-0.482 0.388,-0.872 0.874,-0.872c0.469,0 0.856,0.39 0.856,0.872Zm113.842,44.693c0,0.481 -0.388,0.87 -0.858,0.87c-0.485,0 -0.874,-0.39 -0.874,-0.87c0,-0.482 0.388,-0.872 0.874,-0.872c0.469,0 0.858,0.39 0.858,0.872Zm20.726,-60.073c0,0.479 -0.404,0.87 -0.874,0.87c-0.485,0 -0.874,-0.392 -0.874,-0.87c0,-0.482 0.388,-0.874 0.874,-0.874c0.469,0 0.874,0.392 0.874,0.874Zm-423.871,58.002c0,0.481 -0.393,0.87 -0.872,0.87c-0.481,0 -0.874,-0.39 -0.874,-0.87c0,-0.482 0.393,-0.872 0.874,-0.872c0.479,0 0.872,0.39 0.872,0.872Zm187.299,244.764c0,0.209 -0.17,0.38 -0.38,0.38c-0.21,0 -0.382,-0.171 -0.382,-0.38c0,-0.21 0.172,-0.382 0.382,-0.382c0.21,0 0.38,0.171 0.38,0.382Zm6.405,-78.874c0,0.21 -0.17,0.382 -0.38,0.382c-0.21,0 -0.382,-0.171 -0.382,-0.382c0,-0.21 0.171,-0.382 0.382,-0.382c0.21,0 0.38,0.171 0.38,0.382Zm60.248,16.248c0,0.209 -0.162,0.38 -0.372,0.38c-0.21,0 -0.388,-0.172 -0.388,-0.38c0,-0.212 0.178,-0.382 0.388,-0.382c0.21,0 0.372,0.17 0.372,0.382Zm-193.881,-36.54c0,0.21 -0.172,0.382 -0.382,0.382c-0.21,0 -0.382,-0.172 -0.382,-0.382c0,-0.209 0.172,-0.38 0.382,-0.38c0.21,0 0.382,0.171 0.382,0.38Zm111.44,63.222c0,0.21 -0.17,0.382 -0.38,0.382c-0.21,0 -0.382,-0.171 -0.382,-0.382c0,-0.21 0.171,-0.382 0.382,-0.382c0.21,0 0.38,0.171 0.38,0.382Zm-4.99,-107.184c0,0.21 -0.17,0.382 -0.38,0.382c-0.21,0 -0.382,-0.171 -0.382,-0.382c0,-0.21 0.172,-0.382 0.382,-0.382c0.21,0 0.38,0.171 0.38,0.382Zm-601.764,-46.148c0,0.21 -0.171,0.382 -0.382,0.382c-0.21,0 -0.382,-0.172 -0.382,-0.382c0,-0.21 0.172,-0.382 0.382,-0.382c0.21,0 0.382,0.171 0.382,0.382Zm978.761,110.976c0,0.209 -0.178,0.38 -0.388,0.38c-0.21,0 -0.372,-0.172 -0.372,-0.38c0,-0.21 0.162,-0.382 0.372,-0.382c0.21,0 0.388,0.172 0.388,0.382Zm-431.389,-231.806c0,0.21 -0.17,0.382 -0.38,0.382c-0.21,0 -0.382,-0.171 -0.382,-0.382c0,-0.209 0.172,-0.38 0.382,-0.38c0.21,0 0.38,0.171 0.38,0.38Zm-58.499,7.337c0,0.21 -0.17,0.382 -0.38,0.382c-0.21,0 -0.383,-0.171 -0.383,-0.382c0,-0.21 0.173,-0.382 0.383,-0.382c0.21,0 0.38,0.171 0.38,0.382Zm-211.031,-13.924c0,0.21 -0.172,0.382 -0.382,0.382c-0.21,0 -0.382,-0.172 -0.382,-0.382c0,-0.21 0.171,-0.382 0.382,-0.382c0.21,0 0.382,0.172 0.382,0.382Zm-6.713,28.434c0,0.21 -0.172,0.382 -0.379,0.382c-0.212,0 -0.383,-0.172 -0.383,-0.382c0,-0.209 0.171,-0.382 0.383,-0.382c0.207,0 0.379,0.173 0.379,0.382Zm628.449,125.018c0,0.21 -0.178,0.382 -0.388,0.382c-0.21,0 -0.388,-0.171 -0.388,-0.382c0,-0.21 0.178,-0.382 0.388,-0.382c0.21,0 0.388,0.171 0.388,0.382Zm-23.266,-24.252c0,0.21 -0.178,0.382 -0.388,0.382c-0.21,0 -0.388,-0.172 -0.388,-0.382c0,-0.21 0.178,-0.382 0.388,-0.382c0.21,0 0.388,0.172 0.388,0.382Zm36.372,-6.71c0,0.21 -0.162,0.38 -0.372,0.38c-0.21,0 -0.388,-0.17 -0.388,-0.38c0,-0.21 0.178,-0.382 0.388,-0.382c0.21,0 0.372,0.172 0.372,0.382Zm0.388,-40.831c0,0.21 -0.178,0.382 -0.388,0.382c-0.21,0 -0.372,-0.171 -0.372,-0.382c0,-0.21 0.162,-0.382 0.372,-0.382c0.21,0 0.388,0.171 0.388,0.382Zm10.759,-81.136c0,0.21 -0.178,0.382 -0.388,0.382c-0.21,0 -0.372,-0.172 -0.372,-0.382c0,-0.21 0.162,-0.382 0.372,-0.382c0.21,0 0.388,0.172 0.388,0.382Zm-76.627,-15.253c0,0.212 -0.162,0.382 -0.372,0.382c-0.21,0 -0.388,-0.17 -0.388,-0.382c0,-0.209 0.178,-0.38 0.388,-0.38c0.21,0 0.372,0.171 0.372,0.38Zm45.546,525.782c0,0.209 -0.178,0.38 -0.388,0.38c-0.194,0 -0.372,-0.172 -0.372,-0.38c0,-0.212 0.178,-0.382 0.372,-0.382c0.21,0 0.388,0.17 0.388,0.382Zm-46.274,45.678c0,0.209 -0.162,0.382 -0.372,0.382c-0.21,0 -0.388,-0.173 -0.388,-0.382c0,-0.21 0.178,-0.382 0.388,-0.382c0.21,0 0.372,0.172 0.372,0.382Zm-56.014,-13.22c0,0.207 -0.178,0.38 -0.388,0.38c-0.21,0 -0.372,-0.173 -0.372,-0.38c0,-0.214 0.162,-0.383 0.372,-0.383c0.21,0 0.388,0.17 0.388,0.383Zm-7.766,45.576c0,0.209 -0.178,0.382 -0.388,0.382c-0.21,0 -0.388,-0.173 -0.388,-0.382c0,-0.21 0.178,-0.382 0.388,-0.382c0.21,0 0.388,0.171 0.388,0.382Zm90.719,-45.96c0,0.209 -0.178,0.382 -0.388,0.382c-0.21,0 -0.388,-0.173 -0.388,-0.382c0,-0.212 0.178,-0.382 0.388,-0.382c0.21,0 0.388,0.17 0.388,0.382Zm-14.384,-35.035c0,0.209 -0.162,0.38 -0.372,0.38c-0.21,0 -0.388,-0.172 -0.388,-0.38c0,-0.212 0.178,-0.382 0.388,-0.382c0.21,0 0.372,0.17 0.372,0.382Zm-382.779,-371.23c0,0.21 -0.17,0.382 -0.38,0.382c-0.21,0 -0.383,-0.171 -0.383,-0.382c0,-0.21 0.173,-0.382 0.383,-0.382c0.21,0 0.38,0.171 0.38,0.382Zm-267.49,238.567c0,0.209 -0.172,0.382 -0.38,0.382c-0.21,0 -0.383,-0.173 -0.383,-0.382c0,-0.21 0.173,-0.382 0.383,-0.382c0.209,0 0.38,0.172 0.38,0.382Zm-5.975,-30.109c0,0.21 -0.172,0.382 -0.382,0.382c-0.21,0 -0.382,-0.171 -0.382,-0.382c0,-0.21 0.171,-0.382 0.382,-0.382c0.21,0 0.382,0.171 0.382,0.382Zm67.089,2.984c0,0.212 -0.17,0.382 -0.38,0.382c-0.21,0 -0.382,-0.17 -0.382,-0.382c0,-0.209 0.171,-0.38 0.382,-0.38c0.21,0 0.38,0.171 0.38,0.38Zm-26.852,-29.008c0,0.21 -0.172,0.382 -0.38,0.382c-0.212,0 -0.383,-0.171 -0.383,-0.382c0,-0.21 0.172,-0.382 0.383,-0.382c0.209,0 0.38,0.172 0.38,0.382Zm-0.38,114.607c0,0.21 -0.171,0.383 -0.383,0.383c-0.209,0 -0.382,-0.173 -0.382,-0.383c0,-0.21 0.173,-0.382 0.382,-0.382c0.212,0 0.383,0.172 0.383,0.382Zm12.195,47.45c0,0.21 -0.172,0.383 -0.38,0.383c-0.212,0 -0.382,-0.173 -0.382,-0.383c0,-0.209 0.17,-0.382 0.382,-0.382c0.209,0 0.38,0.173 0.38,0.382Zm30.667,-26.669c0,0.21 -0.172,0.382 -0.382,0.382c-0.209,0 -0.382,-0.171 -0.382,-0.382c0,-0.21 0.173,-0.382 0.382,-0.382c0.21,0 0.382,0.172 0.382,0.382Zm292.892,77.198c0,0.21 -0.17,0.382 -0.38,0.382c-0.21,0 -0.383,-0.171 -0.383,-0.382c0,-0.21 0.173,-0.382 0.383,-0.382c0.21,0 0.38,0.171 0.38,0.382Zm-4.221,-43.031c0,0.21 -0.172,0.383 -0.382,0.383c-0.209,0 -0.382,-0.173 -0.382,-0.383c0,-0.209 0.173,-0.382 0.382,-0.382c0.21,0 0.382,0.173 0.382,0.382Zm17.487,17.668c0,0.21 -0.17,0.383 -0.38,0.383c-0.21,0 -0.382,-0.173 -0.382,-0.383c0,-0.21 0.172,-0.382 0.382,-0.382c0.21,0 0.38,0.172 0.38,0.382Zm-78.353,0c0,0.21 -0.17,0.383 -0.379,0.383c-0.212,0 -0.382,-0.173 -0.382,-0.383c0,-0.21 0.17,-0.382 0.382,-0.382c0.209,0 0.379,0.172 0.379,0.382Zm2.835,26.128c0,0.21 -0.172,0.382 -0.382,0.382c-0.21,0 -0.382,-0.172 -0.382,-0.382c0,-0.21 0.172,-0.383 0.382,-0.383c0.21,0 0.382,0.173 0.382,0.383Zm-39.022,0.382c0,0.21 -0.17,0.382 -0.38,0.382c-0.21,0 -0.382,-0.172 -0.382,-0.382c0,-0.21 0.171,-0.382 0.382,-0.382c0.21,0 0.38,0.171 0.38,0.382Zm4.752,23.321c0,0.21 -0.172,0.382 -0.38,0.382c-0.21,0 -0.382,-0.171 -0.382,-0.382c0,-0.21 0.172,-0.382 0.382,-0.382c0.209,0 0.38,0.172 0.38,0.382Zm25.541,3.597c0,0.21 -0.17,0.382 -0.38,0.382c-0.21,0 -0.383,-0.172 -0.383,-0.382c0,-0.21 0.173,-0.383 0.383,-0.383c0.21,0 0.38,0.173 0.38,0.383Zm-29.423,-89.604c0,0.21 -0.17,0.382 -0.379,0.382c-0.212,0 -0.382,-0.172 -0.382,-0.382c0,-0.21 0.17,-0.382 0.382,-0.382c0.209,0 0.379,0.172 0.379,0.382Zm-105.85,52.867c0,0.209 -0.17,0.382 -0.38,0.382c-0.21,0 -0.382,-0.173 -0.382,-0.382c0,-0.21 0.172,-0.383 0.382,-0.383c0.21,0 0.38,0.173 0.38,0.383Zm-15.652,19.155c0,0.209 -0.172,0.382 -0.382,0.382c-0.21,0 -0.382,-0.173 -0.382,-0.382c0,-0.21 0.172,-0.383 0.382,-0.383c0.21,0 0.382,0.173 0.382,0.383Zm29.649,39.99c0,0.21 -0.172,0.383 -0.38,0.383c-0.21,0 -0.383,-0.173 -0.383,-0.383c0,-0.21 0.173,-0.382 0.383,-0.382c0.209,0 0.38,0.172 0.38,0.382Zm31.202,-25.24c0,0.21 -0.17,0.382 -0.38,0.382c-0.21,0 -0.383,-0.171 -0.383,-0.382c0,-0.21 0.173,-0.383 0.383,-0.383c0.21,0 0.38,0.173 0.38,0.383Zm-45.581,13.238c0,0.21 -0.17,0.383 -0.379,0.383c-0.212,0 -0.382,-0.173 -0.382,-0.383c0,-0.209 0.17,-0.382 0.382,-0.382c0.209,0 0.379,0.173 0.379,0.382Zm19.954,30.944c0,0.21 -0.17,0.383 -0.38,0.383c-0.21,0 -0.382,-0.173 -0.382,-0.383c0,-0.21 0.172,-0.382 0.382,-0.382c0.21,0 0.38,0.172 0.38,0.382Zm15.275,-12.589c0,0.21 -0.172,0.382 -0.38,0.382c-0.21,0 -0.382,-0.172 -0.382,-0.382c0,-0.21 0.171,-0.382 0.382,-0.382c0.209,0 0.38,0.171 0.38,0.382Zm-129.649,12.208c0,0.21 -0.172,0.382 -0.38,0.382c-0.212,0 -0.382,-0.172 -0.382,-0.382c0,-0.21 0.17,-0.382 0.382,-0.382c0.209,0 0.38,0.172 0.38,0.382Zm-18.854,-11.444c0,0.21 -0.17,0.382 -0.382,0.382c-0.209,0 -0.382,-0.172 -0.382,-0.382c0,-0.21 0.173,-0.383 0.382,-0.383c0.212,0 0.382,0.173 0.382,0.383Zm13.131,-6.732c0,0.209 -0.172,0.382 -0.38,0.382c-0.212,0 -0.382,-0.173 -0.382,-0.382c0,-0.21 0.17,-0.383 0.382,-0.383c0.209,0 0.38,0.173 0.38,0.383Zm-61.966,-32.9c0,0.21 -0.172,0.382 -0.38,0.382c-0.21,0 -0.382,-0.172 -0.382,-0.382c0,-0.21 0.172,-0.383 0.382,-0.383c0.209,0 0.38,0.173 0.38,0.383Zm0,-22.81c0,0.21 -0.172,0.382 -0.38,0.382c-0.21,0 -0.382,-0.171 -0.382,-0.382c0,-0.21 0.172,-0.382 0.382,-0.382c0.209,0 0.38,0.171 0.38,0.382Zm-31.93,6.383c0,0.21 -0.172,0.383 -0.382,0.383c-0.21,0 -0.382,-0.173 -0.382,-0.383c0,-0.21 0.171,-0.382 0.382,-0.382c0.21,0 0.382,0.172 0.382,0.382Zm-39.046,-22.359c0,0.21 -0.17,0.382 -0.38,0.382c-0.21,0 -0.382,-0.172 -0.382,-0.382c0,-0.21 0.172,-0.382 0.382,-0.382c0.21,0 0.38,0.172 0.38,0.382Zm-152.097,48.625c0,0.21 -0.172,0.382 -0.382,0.382c-0.209,0 -0.382,-0.171 -0.382,-0.382c0,-0.21 0.173,-0.383 0.382,-0.383c0.21,0 0.382,0.173 0.382,0.383Zm140.457,-212.618c0,0.21 -0.17,0.382 -0.38,0.382c-0.21,0 -0.382,-0.171 -0.382,-0.382c0,-0.21 0.171,-0.382 0.382,-0.382c0.21,0 0.38,0.171 0.38,0.382Zm-10.787,18.257c0,0.21 -0.17,0.382 -0.38,0.382c-0.21,0 -0.382,-0.171 -0.382,-0.382c0,-0.21 0.172,-0.382 0.382,-0.382c0.21,0 0.38,0.171 0.38,0.382Zm-67.526,-79.505c0,0.21 -0.17,0.383 -0.382,0.383c-0.209,0 -0.382,-0.173 -0.382,-0.383c0,-0.21 0.173,-0.382 0.382,-0.382c0.212,0 0.382,0.171 0.382,0.382Zm-0.382,95.445c0,0.21 -0.17,0.383 -0.38,0.383c-0.21,0 -0.382,-0.173 -0.382,-0.383c0,-0.209 0.171,-0.382 0.382,-0.382c0.21,0 0.38,0.173 0.38,0.382Zm128.617,118.686c0,0.21 -0.172,0.382 -0.382,0.382c-0.209,0 -0.382,-0.171 -0.382,-0.382c0,-0.21 0.173,-0.383 0.382,-0.383c0.21,0 0.382,0.173 0.382,0.383Zm-0.382,-31.751c0,0.21 -0.172,0.382 -0.38,0.382c-0.212,0 -0.382,-0.172 -0.382,-0.382c0,-0.21 0.17,-0.383 0.382,-0.383c0.209,0 0.38,0.173 0.38,0.383Zm-26.535,-81.293c0,0.209 -0.17,0.383 -0.38,0.383c-0.21,0 -0.383,-0.175 -0.383,-0.383c0,-0.21 0.173,-0.383 0.383,-0.383c0.21,0 0.38,0.173 0.38,0.383Zm-4.629,-27.622c0,0.21 -0.172,0.383 -0.382,0.383c-0.21,0 -0.382,-0.173 -0.382,-0.383c0,-0.209 0.171,-0.382 0.382,-0.382c0.21,0 0.382,0.173 0.382,0.382Zm-142.421,-2.874c0,0.209 -0.17,0.382 -0.38,0.382c-0.21,0 -0.382,-0.173 -0.382,-0.382c0,-0.21 0.172,-0.383 0.382,-0.383c0.21,0 0.38,0.173 0.38,0.383Zm-9.703,-46.156c0,0.21 -0.17,0.382 -0.38,0.382c-0.21,0 -0.382,-0.172 -0.382,-0.382c0,-0.21 0.171,-0.383 0.382,-0.383c0.21,0 0.38,0.173 0.38,0.383Zm-33.506,68.556c0,0.21 -0.17,0.382 -0.38,0.382c-0.21,0 -0.383,-0.171 -0.383,-0.382c0,-0.21 0.173,-0.383 0.383,-0.383c0.21,0 0.38,0.173 0.38,0.383Zm-11.397,-55.76c0,0.21 -0.17,0.383 -0.38,0.383c-0.21,0 -0.382,-0.173 -0.382,-0.383c0,-0.209 0.172,-0.382 0.382,-0.382c0.21,0 0.38,0.173 0.38,0.382Zm13.683,-31.215c0,0.21 -0.17,0.382 -0.38,0.382c-0.21,0 -0.382,-0.172 -0.382,-0.382c0,-0.21 0.172,-0.383 0.382,-0.383c0.21,0 0.38,0.173 0.38,0.383Zm-14.065,-109.426c0,0.21 -0.172,0.382 -0.38,0.382c-0.21,0 -0.383,-0.171 -0.383,-0.382c0,-0.21 0.173,-0.382 0.383,-0.382c0.209,0 0.38,0.171 0.38,0.382Zm55.372,-23.554c0,0.21 -0.171,0.382 -0.382,0.382c-0.21,0 -0.382,-0.172 -0.382,-0.382c0,-0.21 0.172,-0.382 0.382,-0.382c0.21,0 0.382,0.172 0.382,0.382Zm16.345,74.853c0,0.209 -0.17,0.382 -0.38,0.382c-0.21,0 -0.382,-0.173 -0.382,-0.382c0,-0.21 0.171,-0.383 0.382,-0.383c0.21,0 0.38,0.173 0.38,0.383Zm-8.163,67.579c0,0.21 -0.17,0.382 -0.38,0.382c-0.21,0 -0.383,-0.171 -0.383,-0.382c0,-0.21 0.173,-0.383 0.383,-0.383c0.21,0 0.38,0.173 0.38,0.383Zm-31.691,74.913c0,0.21 -0.17,0.383 -0.38,0.383c-0.21,0 -0.382,-0.173 -0.382,-0.383c0,-0.21 0.172,-0.382 0.382,-0.382c0.21,0 0.38,0.172 0.38,0.382Zm-6.71,46.811c0,0.21 -0.171,0.382 -0.382,0.382c-0.209,0 -0.382,-0.171 -0.382,-0.382c0,-0.21 0.173,-0.382 0.382,-0.382c0.21,0 0.382,0.172 0.382,0.382Zm22.65,-4.137c0,0.21 -0.172,0.383 -0.38,0.383c-0.21,0 -0.383,-0.173 -0.383,-0.383c0,-0.209 0.173,-0.382 0.383,-0.382c0.209,0 0.38,0.173 0.38,0.382Zm14.605,-28.919c0,0.209 -0.17,0.382 -0.38,0.382c-0.21,0 -0.382,-0.173 -0.382,-0.382c0,-0.212 0.172,-0.383 0.382,-0.383c0.21,0 0.38,0.172 0.38,0.383Zm22.333,43.573c0,0.21 -0.172,0.382 -0.38,0.382c-0.21,0 -0.383,-0.171 -0.383,-0.382c0,-0.21 0.173,-0.382 0.383,-0.382c0.209,0 0.38,0.172 0.38,0.382Zm31.73,-27.353c0,0.21 -0.17,0.382 -0.38,0.382c-0.21,0 -0.382,-0.172 -0.382,-0.382c0,-0.21 0.172,-0.382 0.382,-0.382c0.21,0 0.38,0.172 0.38,0.382Zm-27.918,-50.937c0,0.21 -0.171,0.382 -0.382,0.382c-0.21,0 -0.382,-0.171 -0.382,-0.382c0,-0.21 0.172,-0.382 0.382,-0.382c0.21,0 0.382,0.171 0.382,0.382Zm134.129,20.58c0,0.209 -0.17,0.382 -0.382,0.382c-0.209,0 -0.382,-0.173 -0.382,-0.382c0,-0.21 0.173,-0.383 0.382,-0.383c0.212,0 0.382,0.173 0.382,0.383Zm159.094,193.777c0,0.209 -0.172,0.382 -0.38,0.382c-0.21,0 -0.383,-0.173 -0.383,-0.382c0,-0.21 0.173,-0.383 0.383,-0.383c0.209,0 0.38,0.173 0.38,0.383Zm24.08,30.944c0,0.209 -0.172,0.382 -0.382,0.382c-0.209,0 -0.382,-0.173 -0.382,-0.382c0,-0.21 0.173,-0.383 0.382,-0.383c0.21,0 0.382,0.173 0.382,0.383Zm12.19,-17.413c0,0.21 -0.172,0.382 -0.38,0.382c-0.21,0 -0.383,-0.172 -0.383,-0.382c0,-0.21 0.173,-0.382 0.383,-0.382c0.209,0 0.38,0.172 0.38,0.382Zm-18.039,2.662c0,0.209 -0.172,0.382 -0.383,0.382c-0.209,0 -0.382,-0.173 -0.382,-0.382c0,-0.21 0.173,-0.383 0.382,-0.383c0.212,0 0.383,0.173 0.383,0.383Zm-9.936,-40.527c0,0.209 -0.171,0.382 -0.38,0.382c-0.21,0 -0.382,-0.173 -0.382,-0.382c0,-0.21 0.171,-0.383 0.382,-0.383c0.209,0 0.38,0.173 0.38,0.383Zm79.267,66.367c0,0.21 -0.17,0.383 -0.38,0.383c-0.21,0 -0.383,-0.173 -0.383,-0.383c0,-0.21 0.173,-0.382 0.383,-0.382c0.21,0 0.38,0.172 0.38,0.382Zm24.575,-25.451c0,0.209 -0.17,0.382 -0.38,0.382c-0.21,0 -0.382,-0.173 -0.382,-0.382c0,-0.21 0.172,-0.383 0.382,-0.383c0.21,0 0.38,0.173 0.38,0.383Zm-8.983,50.542c0,0.21 -0.172,0.382 -0.38,0.382c-0.212,0 -0.382,-0.172 -0.382,-0.382c0,-0.21 0.17,-0.382 0.382,-0.382c0.209,0 0.38,0.172 0.38,0.382Zm-18.878,-2.71c0,0.21 -0.171,0.382 -0.38,0.382c-0.21,0 -0.383,-0.171 -0.383,-0.382c0,-0.21 0.173,-0.382 0.383,-0.382c0.209,0 0.38,0.172 0.38,0.382Zm-21.197,-234.003c0,0.21 -0.17,0.383 -0.38,0.383c-0.21,0 -0.382,-0.173 -0.382,-0.383c0,-0.21 0.171,-0.382 0.382,-0.382c0.21,0 0.38,0.171 0.38,0.382Zm-22.919,-19.126c0,0.21 -0.17,0.382 -0.379,0.382c-0.212,0 -0.383,-0.172 -0.383,-0.382c0,-0.21 0.172,-0.382 0.383,-0.382c0.209,0 0.379,0.171 0.379,0.382Zm7.145,-32.188c0,0.21 -0.17,0.383 -0.38,0.383c-0.21,0 -0.383,-0.173 -0.383,-0.383c0,-0.209 0.173,-0.382 0.383,-0.382c0.21,0 0.38,0.173 0.38,0.382Zm-83.286,201.532c0,0.21 -0.171,0.382 -0.38,0.382c-0.212,0 -0.382,-0.172 -0.382,-0.382c0,-0.21 0.17,-0.382 0.382,-0.382c0.209,0 0.38,0.172 0.38,0.382Zm-35.694,-37.095c0,0.21 -0.17,0.382 -0.38,0.382c-0.21,0 -0.383,-0.172 -0.383,-0.382c0,-0.21 0.173,-0.382 0.383,-0.382c0.21,0 0.38,0.172 0.38,0.382Zm136.765,-60.371c0,0.21 -0.17,0.382 -0.379,0.382c-0.212,0 -0.382,-0.171 -0.382,-0.382c0,-0.21 0.17,-0.383 0.382,-0.383c0.209,0 0.379,0.173 0.379,0.383Zm107.384,148.162c0,0.21 -0.17,0.382 -0.38,0.382c-0.21,0 -0.382,-0.172 -0.382,-0.382c0,-0.21 0.172,-0.382 0.382,-0.382c0.21,0 0.38,0.172 0.38,0.382Zm-31.974,-11.444c0,0.21 -0.171,0.382 -0.379,0.382c-0.214,0 -0.383,-0.172 -0.383,-0.382c0,-0.21 0.17,-0.383 0.383,-0.383c0.207,0 0.379,0.173 0.379,0.383Zm5.59,45.591c0,0.21 -0.172,0.383 -0.38,0.383c-0.21,0 -0.382,-0.173 -0.382,-0.383c0,-0.209 0.172,-0.382 0.382,-0.382c0.209,0 0.38,0.173 0.38,0.382Zm40.579,-7.237c0,0.21 -0.17,0.382 -0.382,0.382c-0.209,0 -0.383,-0.171 -0.383,-0.382c0,-0.21 0.175,-0.383 0.383,-0.383c0.212,0 0.382,0.173 0.382,0.383Zm43.745,24.789c0,0.21 -0.172,0.382 -0.38,0.382c-0.21,0 -0.383,-0.172 -0.383,-0.382c0,-0.21 0.173,-0.382 0.383,-0.382c0.209,0 0.38,0.171 0.38,0.382Zm28.102,-17.168c0,0.21 -0.17,0.382 -0.38,0.382c-0.21,0 -0.382,-0.172 -0.382,-0.382c0,-0.21 0.172,-0.383 0.382,-0.383c0.21,0 0.38,0.173 0.38,0.383Zm29.402,-65.474c0,0.21 -0.17,0.382 -0.38,0.382c-0.21,0 -0.382,-0.171 -0.382,-0.382c0,-0.21 0.172,-0.382 0.382,-0.382c0.21,0 0.38,0.172 0.38,0.382Zm26.713,9.019c0,0.21 -0.172,0.382 -0.382,0.382c-0.209,0 -0.382,-0.171 -0.382,-0.382c0,-0.21 0.173,-0.382 0.382,-0.382c0.21,0 0.382,0.172 0.382,0.382Zm-12.754,-35.097c0,0.21 -0.17,0.382 -0.38,0.382c-0.21,0 -0.383,-0.172 -0.383,-0.382c0,-0.21 0.173,-0.382 0.383,-0.382c0.21,0 0.38,0.172 0.38,0.382Zm5.325,-66.953c0,0.21 -0.17,0.382 -0.38,0.382c-0.21,0 -0.383,-0.172 -0.383,-0.382c0,-0.21 0.173,-0.382 0.383,-0.382c0.21,0 0.38,0.172 0.38,0.382Zm5.236,-70.771c0,0.21 -0.17,0.382 -0.38,0.382c-0.21,0 -0.382,-0.172 -0.382,-0.382c0,-0.21 0.172,-0.382 0.382,-0.382c0.21,0 0.38,0.172 0.38,0.382Zm18.55,-7.91c0,0.21 -0.17,0.382 -0.38,0.382c-0.21,0 -0.383,-0.171 -0.383,-0.382c0,-0.21 0.173,-0.382 0.383,-0.382c0.21,0 0.38,0.172 0.38,0.382Zm-54.013,-28.39c0,0.21 -0.17,0.383 -0.38,0.383c-0.21,0 -0.382,-0.173 -0.382,-0.383c0,-0.21 0.171,-0.382 0.382,-0.382c0.21,0 0.38,0.172 0.38,0.382Zm3.831,-20.797c0,0.21 -0.172,0.382 -0.382,0.382c-0.21,0 -0.382,-0.172 -0.382,-0.382c0,-0.21 0.171,-0.382 0.382,-0.382c0.21,0 0.382,0.172 0.382,0.382Zm-173.774,-250.068c0,0.209 -0.17,0.382 -0.382,0.382c-0.209,0 -0.382,-0.173 -0.382,-0.382c0,-0.21 0.173,-0.383 0.382,-0.383c0.212,0 0.382,0.173 0.382,0.383Zm33.469,-42.947c0,0.21 -0.171,0.382 -0.379,0.382c-0.214,0 -0.383,-0.171 -0.383,-0.382c0,-0.21 0.17,-0.383 0.383,-0.383c0.207,0 0.379,0.173 0.379,0.383Zm-75.027,2.385c0,0.21 -0.172,0.382 -0.382,0.382c-0.21,0 -0.382,-0.171 -0.382,-0.382c0,-0.21 0.171,-0.383 0.382,-0.383c0.21,0 0.382,0.173 0.382,0.383Zm-7.448,27.894c0,0.209 -0.17,0.382 -0.38,0.382c-0.21,0 -0.382,-0.173 -0.382,-0.382c0,-0.21 0.171,-0.383 0.382,-0.383c0.21,0 0.38,0.173 0.38,0.383Zm-209.322,11.412c0,0.21 -0.17,0.382 -0.38,0.382c-0.21,0 -0.382,-0.171 -0.382,-0.382c0,-0.21 0.172,-0.382 0.382,-0.382c0.21,0 0.38,0.171 0.38,0.382Zm-0.762,42.077c0,0.212 -0.172,0.383 -0.382,0.383c-0.21,0 -0.382,-0.172 -0.382,-0.383c0,-0.209 0.171,-0.382 0.382,-0.382c0.21,0 0.382,0.173 0.382,0.382Zm-70.483,31.128c0,0.21 -0.172,0.383 -0.38,0.383c-0.21,0 -0.384,-0.173 -0.384,-0.383c0,-0.21 0.173,-0.382 0.384,-0.382c0.209,0 0.38,0.171 0.38,0.382Zm-3.393,-93.96c0,0.21 -0.17,0.382 -0.38,0.382c-0.21,0 -0.382,-0.171 -0.382,-0.382c0,-0.21 0.171,-0.382 0.382,-0.382c0.21,0 0.38,0.171 0.38,0.382Zm-24.271,-21.807c0,0.21 -0.17,0.382 -0.38,0.382c-0.21,0 -0.382,-0.171 -0.382,-0.382c0,-0.21 0.172,-0.382 0.382,-0.382c0.21,0 0.38,0.171 0.38,0.382Zm0.383,-51.78c0,0.21 -0.172,0.383 -0.382,0.383c-0.209,0 -0.382,-0.173 -0.382,-0.383c0,-0.21 0.173,-0.382 0.382,-0.382c0.21,0 0.382,0.172 0.382,0.382Zm-50.136,-10.483c0,0.21 -0.17,0.383 -0.38,0.383c-0.21,0 -0.382,-0.173 -0.382,-0.383c0,-0.21 0.172,-0.382 0.382,-0.382c0.21,0 0.38,0.171 0.38,0.382Zm17.147,-11.79c0,0.21 -0.172,0.382 -0.38,0.382c-0.21,0 -0.384,-0.172 -0.384,-0.382c0,-0.21 0.173,-0.382 0.384,-0.382c0.209,0 0.38,0.171 0.38,0.382Zm50.628,17.99c0,0.21 -0.171,0.382 -0.38,0.382c-0.21,0 -0.383,-0.171 -0.383,-0.382c0,-0.21 0.173,-0.382 0.383,-0.382c0.209,0 0.38,0.172 0.38,0.382Zm15.416,30.458c0,0.21 -0.17,0.382 -0.38,0.382c-0.21,0 -0.382,-0.172 -0.382,-0.382c0,-0.21 0.172,-0.382 0.382,-0.382c0.21,0 0.38,0.171 0.38,0.382Zm18.115,65.176c0,0.209 -0.172,0.382 -0.382,0.382c-0.21,0 -0.382,-0.173 -0.382,-0.382c0,-0.21 0.172,-0.383 0.382,-0.383c0.21,0 0.382,0.173 0.382,0.383Zm-101.686,48.392c0,0.21 -0.172,0.383 -0.38,0.383c-0.21,0 -0.383,-0.173 -0.383,-0.383c0,-0.21 0.173,-0.382 0.383,-0.382c0.209,0 0.38,0.171 0.38,0.382Zm89.503,-151.951c0,0.21 -0.17,0.382 -0.38,0.382c-0.21,0 -0.382,-0.171 -0.382,-0.382c0,-0.21 0.172,-0.382 0.382,-0.382c0.21,0 0.38,0.171 0.38,0.382Zm-103.009,70.504c0,0.21 -0.17,0.382 -0.38,0.382c-0.21,0 -0.382,-0.172 -0.382,-0.382c0,-0.21 0.172,-0.382 0.382,-0.382c0.21,0 0.38,0.172 0.38,0.382Zm-7.049,23.27c0,0.21 -0.172,0.383 -0.38,0.383c-0.21,0 -0.383,-0.173 -0.383,-0.383c0,-0.21 0.173,-0.382 0.383,-0.382c0.209,0 0.38,0.171 0.38,0.382Zm17.125,21.444c0,0.209 -0.171,0.382 -0.38,0.382c-0.21,0 -0.383,-0.173 -0.383,-0.382c0,-0.21 0.173,-0.383 0.383,-0.383c0.209,0 0.38,0.173 0.38,0.383Zm20.195,-17.207c0,0.21 -0.17,0.383 -0.38,0.383c-0.21,0 -0.382,-0.173 -0.382,-0.383c0,-0.209 0.171,-0.382 0.382,-0.382c0.21,0 0.38,0.173 0.38,0.382Zm-98.584,-27.889c0,0.209 -0.172,0.382 -0.382,0.382c-0.21,0 -0.382,-0.173 -0.382,-0.382c0,-0.21 0.171,-0.383 0.382,-0.383c0.21,0 0.382,0.173 0.382,0.383Zm-0.383,-55.912c0,0.21 -0.17,0.383 -0.38,0.383c-0.21,0 -0.382,-0.173 -0.382,-0.383c0,-0.21 0.172,-0.382 0.382,-0.382c0.21,0 0.38,0.172 0.38,0.382Zm10.255,-24.276c0,0.21 -0.17,0.382 -0.38,0.382c-0.21,0 -0.382,-0.172 -0.382,-0.382c0,-0.21 0.172,-0.382 0.382,-0.382c0.21,0 0.38,0.171 0.38,0.382Zm-12.991,281.438c0,0.21 -0.172,0.383 -0.38,0.383c-0.21,0 -0.383,-0.173 -0.383,-0.383c0,-0.209 0.173,-0.382 0.383,-0.382c0.209,0 0.38,0.173 0.38,0.382Zm-10.544,-48.452c0,0.21 -0.17,0.383 -0.38,0.383c-0.21,0 -0.382,-0.173 -0.382,-0.383c0,-0.209 0.172,-0.382 0.382,-0.382c0.21,0 0.38,0.173 0.38,0.382Zm23.918,-15.232c0,0.209 -0.172,0.382 -0.382,0.382c-0.21,0 -0.382,-0.173 -0.382,-0.382c0,-0.21 0.171,-0.383 0.382,-0.383c0.21,0 0.382,0.173 0.382,0.383Zm27.431,19.513c0,0.21 -0.172,0.382 -0.382,0.382c-0.209,0 -0.382,-0.172 -0.382,-0.382c0,-0.21 0.173,-0.382 0.382,-0.382c0.21,0 0.382,0.172 0.382,0.382Zm-12.153,-41.933c0,0.21 -0.172,0.382 -0.38,0.382c-0.21,0 -0.383,-0.171 -0.383,-0.382c0,-0.21 0.173,-0.382 0.383,-0.382c0.209,0 0.38,0.171 0.38,0.382Zm29.837,23.182c0,0.21 -0.17,0.383 -0.38,0.383c-0.21,0 -0.382,-0.173 -0.382,-0.383c0,-0.21 0.172,-0.382 0.382,-0.382c0.21,0 0.38,0.171 0.38,0.382Zm7.038,-21.469c0,0.21 -0.17,0.382 -0.38,0.382c-0.21,0 -0.383,-0.172 -0.383,-0.382c0,-0.21 0.173,-0.382 0.383,-0.382c0.21,0 0.38,0.172 0.38,0.382Zm121.48,16.676c0,0.21 -0.172,0.382 -0.38,0.382c-0.21,0 -0.383,-0.172 -0.383,-0.382c0,-0.21 0.173,-0.383 0.383,-0.383c0.209,0 0.38,0.173 0.38,0.383Zm-28.428,-85.765c0,0.21 -0.171,0.383 -0.382,0.383c-0.21,0 -0.382,-0.173 -0.382,-0.383c0,-0.21 0.172,-0.382 0.382,-0.382c0.21,0 0.382,0.171 0.382,0.382Zm-46.698,27.772c0,0.21 -0.17,0.383 -0.38,0.383c-0.21,0 -0.382,-0.173 -0.382,-0.383c0,-0.209 0.172,-0.382 0.382,-0.382c0.21,0 0.38,0.173 0.38,0.382Zm-16.591,73.74c0,0.21 -0.17,0.383 -0.38,0.383c-0.21,0 -0.382,-0.173 -0.382,-0.383c0,-0.21 0.172,-0.382 0.382,-0.382c0.21,0 0.38,0.171 0.38,0.382Zm-66.639,104.498c0,0.21 -0.172,0.382 -0.38,0.382c-0.21,0 -0.383,-0.172 -0.383,-0.382c0,-0.21 0.173,-0.382 0.383,-0.382c0.209,0 0.38,0.171 0.38,0.382Zm864.747,-100.602c0,0.21 -0.162,0.383 -0.372,0.383c-0.21,0 -0.388,-0.173 -0.388,-0.383c0,-0.209 0.178,-0.382 0.388,-0.382c0.21,0 0.372,0.173 0.372,0.382Zm10.954,-41.807c0,0.212 -0.178,0.383 -0.388,0.383c-0.21,0 -0.388,-0.171 -0.388,-0.383c0,-0.209 0.178,-0.382 0.388,-0.382c0.21,0 0.388,0.173 0.388,0.382Zm-18.995,-43.109c0,0.21 -0.162,0.382 -0.372,0.382c-0.21,0 -0.388,-0.172 -0.388,-0.382c0,-0.21 0.178,-0.382 0.388,-0.382c0.21,0 0.372,0.172 0.372,0.382Zm32.828,-20.938c0,0.209 -0.162,0.382 -0.372,0.382c-0.21,0 -0.388,-0.173 -0.388,-0.382c0,-0.212 0.178,-0.383 0.388,-0.383c0.21,0 0.372,0.171 0.372,0.383Zm-127.107,-114.71c0,0.209 -0.178,0.382 -0.388,0.382c-0.21,0 -0.372,-0.173 -0.372,-0.382c0,-0.21 0.162,-0.383 0.372,-0.383c0.21,0 0.388,0.173 0.388,0.383Zm26.808,-3.118c0,0.21 -0.176,0.382 -0.387,0.382c-0.21,0 -0.372,-0.172 -0.372,-0.382c0,-0.21 0.162,-0.382 0.372,-0.382c0.21,0 0.387,0.172 0.387,0.382Zm62.148,99.908c0,0.21 -0.178,0.382 -0.388,0.382c-0.21,0 -0.388,-0.172 -0.388,-0.382c0,-0.21 0.178,-0.383 0.388,-0.383c0.21,0 0.388,0.173 0.388,0.383Zm-1.375,-31.903c0,0.209 -0.178,0.382 -0.388,0.382c-0.21,0 -0.388,-0.173 -0.388,-0.382c0,-0.21 0.178,-0.383 0.388,-0.383c0.21,0 0.388,0.173 0.388,0.383Zm-18.138,18.168c0,0.21 -0.178,0.382 -0.388,0.382c-0.21,0 -0.372,-0.171 -0.372,-0.382c0,-0.21 0.162,-0.382 0.372,-0.382c0.21,0 0.388,0.171 0.388,0.382Zm-109.293,-92.098c0,0.21 -0.162,0.382 -0.372,0.382c-0.21,0 -0.388,-0.171 -0.388,-0.382c0,-0.21 0.178,-0.383 0.388,-0.383c0.21,0 0.372,0.173 0.372,0.383Zm-6.148,127.565c0,0.21 -0.178,0.383 -0.388,0.383c-0.21,0 -0.372,-0.173 -0.372,-0.383c0,-0.209 0.162,-0.382 0.372,-0.382c0.21,0 0.388,0.173 0.388,0.382Zm3.042,-17.702c0,0.209 -0.178,0.382 -0.388,0.382c-0.21,0 -0.372,-0.173 -0.372,-0.382c0,-0.21 0.162,-0.383 0.372,-0.383c0.21,0 0.388,0.173 0.388,0.383Zm20.823,21.977c0,0.209 -0.178,0.382 -0.388,0.382c-0.21,0 -0.388,-0.173 -0.388,-0.382c0,-0.21 0.178,-0.383 0.388,-0.383c0.21,0 0.388,0.173 0.388,0.383Zm-1.747,-23.719c0,0.209 -0.178,0.382 -0.388,0.382c-0.21,0 -0.372,-0.173 -0.372,-0.382c0,-0.212 0.162,-0.383 0.372,-0.383c0.21,0 0.388,0.171 0.388,0.383Zm-15.16,47.846c0,0.21 -0.178,0.382 -0.388,0.382c-0.21,0 -0.372,-0.171 -0.372,-0.382c0,-0.21 0.162,-0.383 0.372,-0.383c0.21,0 0.388,0.173 0.388,0.383Zm-35.582,-30.554l-0.191,0.193l-0.193,-0.193l0.193,-0.191l0.191,0.191Zm27.67,-37.178l-0.194,0.193l-0.194,-0.193l0.194,-0.193l0.194,0.193Zm1.149,13.206l-0.194,0.191l-0.194,-0.191l0.194,-0.193l0.194,0.193Zm-207.109,108.14l-0.191,0.193l-0.193,-0.193l0.193,-0.193l0.191,0.193Zm309.381,-177.521l-0.194,0.191l-0.194,-0.191l0.194,-0.193l0.194,0.193Zm-9.546,-18.658l-0.194,0.193l-0.194,-0.193l0.194,-0.193l0.194,0.193Zm26.34,25.47l-0.178,0.193l-0.194,-0.193l0.194,-0.191l0.178,0.191Zm13.736,-30.084l-0.194,0.193l-0.178,-0.193l0.178,-0.193l0.194,0.193Zm-80.186,-9.551l-0.194,0.193l-0.194,-0.193l0.194,-0.193l0.194,0.193Zm-37.731,22.841l-0.194,0.193l-0.194,-0.193l0.194,-0.193l0.194,0.193Zm14.885,-16.152l-0.194,0.191l-0.178,-0.191l0.178,-0.193l0.194,0.193Zm147.591,9.708l-0.178,0.193l-0.194,-0.193l0.194,-0.193l0.178,0.193Zm3.818,-13.131l-0.178,0.191l-0.194,-0.191l0.194,-0.193l0.178,0.193Zm2.265,27.403l-0.194,0.191l-0.194,-0.191l0.194,-0.193l0.194,0.193Zm39.656,-30.861l-0.194,0.193l-0.194,-0.193l0.194,-0.191l0.194,0.191Zm-81.044,46.241l-0.194,0.193l-0.194,-0.193l0.194,-0.191l0.194,0.191Zm-73.957,106.685l-0.194,0.193l-0.194,-0.193l0.194,-0.193l0.194,0.193Zm1.343,-19.75l-0.194,0.193l-0.194,-0.193l0.194,-0.191l0.194,0.191Zm-31.906,19.75l-0.194,0.193l-0.194,-0.193l0.194,-0.193l0.194,0.193Zm-66.163,49.662l-0.193,0.193l-0.193,-0.193l0.193,-0.191l0.193,0.191Zm-11.708,7.757l-0.191,0.193l-0.193,-0.193l0.193,-0.191l0.191,0.191Zm-5.221,19.836l-0.193,0.193l-0.193,-0.193l0.193,-0.191l0.193,0.191Zm-33.927,-2.938l-0.191,0.191l-0.192,-0.191l0.192,-0.193l0.191,0.193Zm46.382,-43.146l-0.191,0.191l-0.192,-0.191l0.192,-0.193l0.191,0.193Zm0,70.168l-0.191,0.193l-0.192,-0.193l0.192,-0.193l0.191,0.193Zm28.044,-10.235l-0.191,0.193l-0.194,-0.193l0.194,-0.191l0.191,0.191Zm12.013,-29.08l-0.194,0.191l-0.194,-0.191l0.194,-0.193l0.194,0.193Zm85.574,92.318l-0.194,0.191l-0.194,-0.191l0.194,-0.193l0.194,0.193Zm-410.354,-7.435l-0.191,0.193l-0.193,-0.193l0.193,-0.191l0.191,0.191Zm9.743,-21.008l-0.192,0.193l-0.193,-0.193l0.193,-0.193l0.192,0.193Zm7.834,13.33l-0.193,0.193l-0.193,-0.193l0.193,-0.191l0.193,0.191Zm-44.934,-42.583l-0.191,0.193l-0.193,-0.193l0.193,-0.193l0.191,0.193Zm1.419,-55.137l-0.191,0.191l-0.193,-0.191l0.193,-0.193l0.191,0.193Zm-16.426,18.608l-0.191,0.191l-0.194,-0.191l0.194,-0.193l0.191,0.193Zm76.649,7.344l-0.191,0.193l-0.193,-0.193l0.193,-0.191l0.191,0.191Zm0.191,147.798l-0.189,0.193l-0.193,-0.193l0.193,-0.193l0.189,0.193Zm197.34,42.98l-0.192,0.193l-0.193,-0.193l0.193,-0.191l0.192,0.191Zm18.201,-10.802l-0.191,0.193l-0.194,-0.193l0.194,-0.191l0.191,0.191Zm-37.475,-23.776l-0.193,0.194l-0.193,-0.194l0.193,-0.191l0.193,0.191Zm26.282,-31.872l-0.191,0.194l-0.194,-0.194l0.194,-0.191l0.191,0.191Zm30.196,24.729l-0.191,0.193l-0.193,-0.193l0.193,-0.191l0.191,0.191Zm108.392,59.518l-0.194,0.193l-0.194,-0.193l0.194,-0.193l0.194,0.193Zm11.488,-32.024l-0.194,0.193l-0.194,-0.193l0.194,-0.193l0.194,0.193Zm36.647,6.024l-0.194,0.194l-0.194,-0.194l0.194,-0.194l0.194,0.194Zm-15.387,16.28l-0.194,0.193l-0.194,-0.193l0.194,-0.193l0.194,0.193Zm1.343,-22.685l-0.194,0.193l-0.194,-0.193l0.194,-0.193l0.194,0.193Zm-14.529,58.588l-0.194,0.193l-0.178,-0.193l0.178,-0.194l0.194,0.194Zm28.573,-20.213l-0.194,0.194l-0.194,-0.194l0.194,-0.193l0.194,0.193Zm-44.51,73.469l-0.194,0.194l-0.194,-0.194l0.194,-0.191l0.194,0.191Zm-47.584,31.636l-0.194,0.193l-0.194,-0.193l0.194,-0.193l0.194,0.193Zm40.676,55.399l-0.178,0.194l-0.194,-0.194l0.194,-0.191l0.178,0.191Zm41.113,-18.28l-0.194,0.193l-0.194,-0.193l0.194,-0.194l0.194,0.194Zm9.158,-50.037l-0.178,0.193l-0.194,-0.193l0.194,-0.193l0.178,0.193Zm23.396,19.681l-0.194,0.193l-0.194,-0.193l0.194,-0.193l0.194,0.193Zm30.062,-40.886l-0.194,0.194l-0.194,-0.194l0.194,-0.193l0.194,0.193Zm-24.334,-13.29l-0.178,0.193l-0.194,-0.193l0.194,-0.194l0.178,0.194Zm-43.944,-7.223l-0.178,0.193l-0.194,-0.193l0.194,-0.193l0.178,0.193Zm11.779,-8.261l-0.178,0.193l-0.194,-0.193l0.194,-0.193l0.178,0.193Zm26.244,-42.4l-0.194,0.193l-0.194,-0.193l0.194,-0.193l0.194,0.193Zm31.599,-63.636l-0.194,0.193l-0.194,-0.193l0.194,-0.193l0.194,0.193Zm-291.148,-320.742l-0.191,0.193l-0.193,-0.193l0.193,-0.193l0.191,0.193Zm276.845,211.363l-0.194,0.193l-0.194,-0.193l0.194,-0.191l0.194,0.191Zm12.2,-15.45l-0.194,0.193l-0.194,-0.193l0.194,-0.191l0.194,0.191Zm-65.786,-76.101l-0.194,0.191l-0.194,-0.191l0.194,-0.193l0.194,0.193Zm83.875,-2.016l-0.178,0.191l-0.194,-0.191l0.194,-0.193l0.178,0.193Zm-17.911,-93.653l-0.178,0.193l-0.194,-0.193l0.194,-0.193l0.178,0.193Zm193.606,-12.175l-0.194,0.193l-0.178,-0.193l0.178,-0.193l0.194,0.193Zm-5.064,-45.547l-0.194,0.191l-0.194,-0.191l0.194,-0.193l0.194,0.193Zm-39.252,-24.541l-0.194,0.193l-0.194,-0.193l0.194,-0.193l0.194,0.193Zm-33.136,22.692l-0.194,0.193l-0.194,-0.193l0.194,-0.193l0.194,0.193Zm-11.941,17.891l-0.178,0.193l-0.194,-0.193l0.194,-0.193l0.178,0.193Zm121.056,22.647l-0.194,0.193l-0.194,-0.193l0.194,-0.193l0.194,0.193Zm6.197,-15.45l-0.194,0.193l-0.194,-0.193l0.194,-0.193l0.194,0.193Zm14.319,13.432l-0.194,0.193l-0.194,-0.193l0.194,-0.191l0.194,0.191Zm7.734,-19.071l-0.194,0.193l-0.194,-0.193l0.194,-0.193l0.194,0.193Zm-18.396,-23.81l-0.194,0.191l-0.178,-0.191l0.178,-0.193l0.194,0.193Zm-53.765,-10.099l-0.194,0.193l-0.194,-0.193l0.194,-0.193l0.194,0.193Zm-5.388,71.198l-0.194,0.193l-0.194,-0.193l0.194,-0.193l0.194,0.193Zm10.533,-22.933l-0.178,0.191l-0.194,-0.191l0.194,-0.193l0.178,0.193Zm12.313,46.926l-0.178,0.193l-0.194,-0.193l0.194,-0.191l0.178,0.191Zm-89.15,86.168l-0.194,0.193l-0.194,-0.193l0.194,-0.193l0.194,0.193Zm15.435,-17.354l-0.194,0.191l-0.194,-0.191l0.194,-0.193l0.194,0.193Zm22.247,10.465l-0.178,0.191l-0.194,-0.191l0.194,-0.193l0.178,0.193Zm-9.627,31.414l-0.194,0.193l-0.194,-0.193l0.194,-0.191l0.194,0.191Zm-20.419,20.207l-0.194,0.191l-0.194,-0.191l0.194,-0.193l0.194,0.193Zm111.947,-42.038l-0.194,0.193l-0.194,-0.193l0.194,-0.191l0.194,0.191Zm-1.747,-35.763l-0.194,0.191l-0.194,-0.191l0.194,-0.193l0.194,0.193Zm45.174,-24.053l-0.194,0.191l-0.194,-0.191l0.194,-0.193l0.194,0.193Zm1.731,-23.836l-0.194,0.193l-0.178,-0.193l0.178,-0.193l0.194,0.193Zm-117.399,-86.708l-0.194,0.193l-0.194,-0.193l0.194,-0.191l0.194,0.191Zm-25.612,-21.732l-0.194,0.191l-0.194,-0.191l0.194,-0.193l0.194,0.193Zm143.206,42.713l-0.194,0.191l-0.194,-0.191l0.194,-0.193l0.194,0.193Zm-206.565,154.061l-0.194,0.193l-0.194,-0.193l0.194,-0.193l0.194,0.193Zm36,-24.922l-0.194,0.193l-0.194,-0.193l0.194,-0.193l0.194,0.193Zm-26.729,52.666l-0.194,0.191l-0.194,-0.191l0.194,-0.193l0.194,0.193Zm31.971,-5.925l-0.194,0.193l-0.194,-0.193l0.194,-0.191l0.194,0.191Zm174.028,-162.481l-0.194,0.193l-0.194,-0.193l0.194,-0.193l0.194,0.193Zm-4.482,133.094l-0.194,0.193l-0.194,-0.193l0.194,-0.191l0.194,0.191Zm0.761,-22.787l-0.194,0.191l-0.194,-0.191l0.194,-0.193l0.194,0.193Zm-26.26,58.29l-0.194,0.193l-0.178,-0.193l0.178,-0.191l0.194,0.191Zm-42.73,-10.593l-0.194,0.193l-0.178,-0.193l0.178,-0.193l0.194,0.193Zm-2.702,20.205l-0.194,0.193l-0.194,-0.193l0.194,-0.191l0.194,0.191Zm-26.729,-4.891l-0.194,0.193l-0.194,-0.193l0.194,-0.191l0.194,0.191Zm-23.962,19.814l-0.194,0.193l-0.194,-0.193l0.194,-0.191l0.194,0.191Zm10.63,-13.371l-0.194,0.193l-0.194,-0.193l0.194,-0.193l0.194,0.193Zm13.704,41.823l-0.178,0.193l-0.194,-0.193l0.194,-0.193l0.178,0.193Zm9.158,-12.508l-0.194,0.193l-0.194,-0.193l0.194,-0.193l0.194,0.193Zm57.81,0.193l-0.194,0.191l-0.194,-0.191l0.194,-0.193l0.194,0.193Zm11.374,-16.136l-0.194,0.193l-0.194,-0.193l0.194,-0.191l0.194,0.191Zm3.381,29.432l-0.194,0.193l-0.194,-0.193l0.194,-0.193l0.194,0.193Zm-7.572,89.512l-0.194,0.193l-0.194,-0.193l0.194,-0.191l0.194,0.191Zm-36.129,-11.57l-0.194,0.193l-0.194,-0.193l0.194,-0.191l0.194,0.191Zm-18.154,21.859l-0.194,0.193l-0.194,-0.193l0.194,-0.193l0.194,0.193Zm-19.48,-25.811l-0.194,0.193l-0.194,-0.193l0.194,-0.193l0.194,0.193Zm-10.792,32.736l-0.178,0.193l-0.194,-0.193l0.194,-0.191l0.178,0.191Zm-20.095,13.932l-0.194,0.193l-0.194,-0.193l0.194,-0.191l0.194,0.191Zm-11.212,-31.528l-0.194,0.191l-0.194,-0.191l0.194,-0.193l0.194,0.193Zm-32.926,34.835l-0.194,0.191l-0.194,-0.191l0.194,-0.194l0.194,0.194Zm102.935,-4.071l-0.194,0.191l-0.194,-0.191l0.194,-0.193l0.194,0.193Zm-24.383,30.191l-0.178,0.191l-0.194,-0.191l0.194,-0.193l0.178,0.193Zm-4.482,-26.315l-0.194,0.193l-0.194,-0.193l0.194,-0.193l0.194,0.193Zm-29.932,-50.163l-0.194,0.191l-0.194,-0.191l0.194,-0.193l0.194,0.193Zm132.932,117.815l-0.194,0.191l-0.178,-0.191l0.178,-0.193l0.194,0.193Zm-38.572,11.078l-0.194,0.193l-0.178,-0.193l0.178,-0.191l0.194,0.191Zm4.757,35.176l-0.178,0.191l-0.194,-0.191l0.194,-0.193l0.178,0.193Zm-20.888,20.019l-0.194,0.191l-0.194,-0.191l0.194,-0.193l0.194,0.193Zm21.082,9.815l-0.178,0.193l-0.194,-0.193l0.194,-0.193l0.178,0.193Zm-184.982,48.804l-0.178,0.193l-0.194,-0.193l0.194,-0.193l0.178,0.193Zm23.671,-43.614l-0.194,0.191l-0.178,-0.191l0.178,-0.193l0.194,0.193Zm189.205,61.725l-0.194,0.191l-0.194,-0.191l0.194,-0.193l0.194,0.193Zm-113.403,-9.525l-0.194,0.191l-0.194,-0.191l0.194,-0.193l0.194,0.193Zm-20.241,-22.833l-0.194,0.191l-0.194,-0.191l0.194,-0.194l0.194,0.194Zm118.856,-167.163l-0.194,0.189l-0.194,-0.189l0.194,-0.194l0.194,0.194Zm9.028,-11.135l-0.194,0.193l-0.194,-0.193l0.194,-0.193l0.194,0.193Zm-283.127,-336.043l-0.194,0.191l-0.194,-0.191l0.194,-0.193l0.194,0.193Zm-42.601,-48.647l-0.194,0.193l-0.194,-0.193l0.194,-0.191l0.194,0.191Zm-91.512,33.927c0,0.21 -0.162,0.383 -0.372,0.383c-0.21,0 -0.388,-0.173 -0.388,-0.383c0,-0.209 0.178,-0.382 0.388,-0.382c0.21,0 0.372,0.173 0.372,0.382Zm-43.701,10.971c0,0.21 -0.17,0.383 -0.38,0.383c-0.21,0 -0.383,-0.173 -0.383,-0.383c0,-0.21 0.173,-0.382 0.383,-0.382c0.21,0 0.38,0.171 0.38,0.382Zm-6.731,-37.365c0,0.21 -0.17,0.382 -0.38,0.382c-0.21,0 -0.383,-0.171 -0.383,-0.382c0,-0.21 0.173,-0.382 0.383,-0.382c0.21,0 0.38,0.172 0.38,0.382Zm-68.236,-11.224c0,0.21 -0.17,0.382 -0.38,0.382c-0.21,0 -0.382,-0.171 -0.382,-0.382c0,-0.21 0.172,-0.382 0.382,-0.382c0.21,0 0.38,0.171 0.38,0.382Zm308.73,68.767c0,0.21 -0.162,0.383 -0.372,0.383c-0.21,0 -0.388,-0.173 -0.388,-0.383c0,-0.209 0.178,-0.382 0.388,-0.382c0.21,0 0.372,0.173 0.372,0.382Zm28.913,92.509c0,0.21 -0.162,0.382 -0.372,0.382c-0.21,0 -0.388,-0.171 -0.388,-0.382c0,-0.21 0.178,-0.382 0.388,-0.382c0.21,0 0.372,0.171 0.372,0.382Zm-22.118,43.633c0,0.21 -0.178,0.383 -0.388,0.383c-0.21,0 -0.388,-0.173 -0.388,-0.383c0,-0.209 0.178,-0.382 0.388,-0.382c0.21,0 0.388,0.173 0.388,0.382Zm-104.779,-16.591c0,0.21 -0.162,0.382 -0.372,0.382c-0.21,0 -0.388,-0.171 -0.388,-0.382c0,-0.21 0.178,-0.383 0.388,-0.383c0.21,0 0.372,0.173 0.372,0.383Zm75.203,177.649c0,0.209 -0.178,0.382 -0.388,0.382c-0.21,0 -0.388,-0.173 -0.388,-0.382c0,-0.21 0.178,-0.383 0.388,-0.383c0.21,0 0.388,0.173 0.388,0.383Zm5.695,-27.368c0,0.21 -0.178,0.382 -0.388,0.382c-0.21,0 -0.388,-0.172 -0.388,-0.382c0,-0.21 0.178,-0.383 0.388,-0.383c0.21,0 0.388,0.173 0.388,0.383Zm3.624,-31.1c0,0.21 -0.178,0.382 -0.388,0.382c-0.21,0 -0.372,-0.171 -0.372,-0.382c0,-0.21 0.162,-0.382 0.372,-0.382c0.21,0 0.388,0.171 0.388,0.382Zm42.763,33.256c0,0.21 -0.178,0.382 -0.388,0.382c-0.21,0 -0.372,-0.172 -0.372,-0.382c0,-0.21 0.162,-0.382 0.372,-0.382c0.21,0 0.388,0.171 0.388,0.382Zm-0.388,44.132c0,0.21 -0.162,0.382 -0.372,0.382c-0.21,0 -0.388,-0.172 -0.388,-0.382c0,-0.21 0.178,-0.383 0.388,-0.383c0.21,0 0.372,0.173 0.372,0.383Zm58.23,-41.844c0,0.209 -0.162,0.382 -0.372,0.382c-0.21,0 -0.388,-0.173 -0.388,-0.382c0,-0.21 0.178,-0.383 0.388,-0.383c0.21,0 0.372,0.173 0.372,0.383Zm35.951,-40.108c0,0.21 -0.162,0.383 -0.372,0.383c-0.21,0 -0.388,-0.173 -0.388,-0.383c0,-0.21 0.178,-0.382 0.388,-0.382c0.21,0 0.372,0.171 0.372,0.382Zm-2.119,-107.716c0,0.21 -0.162,0.382 -0.372,0.382c-0.21,0 -0.388,-0.171 -0.388,-0.382c0,-0.21 0.178,-0.383 0.388,-0.383c0.21,0 0.372,0.173 0.372,0.383Zm46.241,-69.83c0,0.21 -0.178,0.382 -0.388,0.382c-0.21,0 -0.372,-0.172 -0.372,-0.382c0,-0.21 0.162,-0.382 0.372,-0.382c0.21,0 0.388,0.172 0.388,0.382Zm-36.744,-96.743c0,0.209 -0.162,0.382 -0.372,0.382c-0.21,0 -0.388,-0.173 -0.388,-0.382c0,-0.21 0.178,-0.383 0.388,-0.383c0.21,0 0.372,0.173 0.372,0.383Zm-18.008,18.691c0,0.21 -0.162,0.382 -0.372,0.382c-0.21,0 -0.388,-0.172 -0.388,-0.382c0,-0.21 0.178,-0.383 0.388,-0.383c0.21,0 0.372,0.173 0.372,0.383Zm-20.241,-34.684c0,0.21 -0.162,0.382 -0.372,0.382c-0.21,0 -0.388,-0.171 -0.388,-0.382c0,-0.21 0.178,-0.382 0.388,-0.382c0.21,0 0.372,0.171 0.372,0.382Zm-20.419,24.585c0,0.209 -0.178,0.382 -0.388,0.382c-0.21,0 -0.372,-0.173 -0.372,-0.382c0,-0.21 0.162,-0.383 0.372,-0.383c0.21,0 0.388,0.173 0.388,0.383Zm-3.349,19.838c0,0.21 -0.162,0.383 -0.372,0.383c-0.21,0 -0.388,-0.173 -0.388,-0.383c0,-0.21 0.178,-0.382 0.388,-0.382c0.21,0 0.372,0.171 0.372,0.382Zm17.83,-28.047c0,0.21 -0.178,0.382 -0.388,0.382c-0.21,0 -0.388,-0.171 -0.388,-0.382c0,-0.21 0.178,-0.382 0.388,-0.382c0.21,0 0.388,0.171 0.388,0.382Zm-14.869,-31.24c0,0.21 -0.162,0.382 -0.372,0.382c-0.21,0 -0.388,-0.171 -0.388,-0.382c0,-0.21 0.178,-0.382 0.388,-0.382c0.21,0 0.372,0.171 0.372,0.382Zm90.978,-2.014c0,0.21 -0.178,0.383 -0.388,0.383c-0.21,0 -0.372,-0.173 -0.372,-0.383c0,-0.21 0.162,-0.382 0.372,-0.382c0.21,0 0.388,0.171 0.388,0.382Zm-0.388,12.277c0,0.209 -0.162,0.382 -0.372,0.382c-0.21,0 -0.388,-0.173 -0.388,-0.382c0,-0.21 0.178,-0.383 0.388,-0.383c0.21,0 0.372,0.173 0.372,0.383Zm24.723,-17.445c0,0.21 -0.162,0.382 -0.372,0.382c-0.21,0 -0.388,-0.171 -0.388,-0.382c0,-0.21 0.178,-0.382 0.388,-0.382c0.21,0 0.372,0.171 0.372,0.382Zm-28.153,47.013c0,0.21 -0.162,0.382 -0.372,0.382c-0.21,0 -0.388,-0.171 -0.388,-0.382c0,-0.21 0.178,-0.382 0.388,-0.382c0.21,0 0.372,0.171 0.372,0.382Zm-82.095,53.225c0,0.21 -0.178,0.383 -0.388,0.383c-0.21,0 -0.372,-0.173 -0.372,-0.383c0,-0.209 0.162,-0.382 0.372,-0.382c0.21,0 0.388,0.173 0.388,0.382Zm-12.313,22.401c0,0.21 -0.178,0.382 -0.388,0.382c-0.21,0 -0.372,-0.171 -0.372,-0.382c0,-0.21 0.162,-0.383 0.372,-0.383c0.21,0 0.388,0.173 0.388,0.383Zm-20.532,13.945c0,0.21 -0.162,0.382 -0.372,0.382c-0.21,0 -0.388,-0.172 -0.388,-0.382c0,-0.21 0.178,-0.383 0.388,-0.383c0.21,0 0.372,0.173 0.372,0.383Zm50.691,3.995c0,0.209 -0.162,0.382 -0.372,0.382c-0.21,0 -0.388,-0.173 -0.388,-0.382c0,-0.21 0.178,-0.383 0.388,-0.383c0.21,0 0.372,0.173 0.372,0.383Zm26.276,-46.3c0,0.21 -0.178,0.382 -0.388,0.382c-0.21,0 -0.388,-0.172 -0.388,-0.382c0,-0.21 0.178,-0.382 0.388,-0.382c0.21,0 0.388,0.172 0.388,0.382Zm20.402,-9.698c0,0.21 -0.162,0.382 -0.372,0.382c-0.21,0 -0.388,-0.171 -0.388,-0.382c0,-0.21 0.178,-0.382 0.388,-0.382c0.21,0 0.372,0.171 0.372,0.382Zm77.905,-42.049c0,0.21 -0.178,0.382 -0.388,0.382c-0.21,0 -0.372,-0.172 -0.372,-0.382c0,-0.21 0.162,-0.382 0.372,-0.382c0.21,0 0.388,0.172 0.388,0.382Zm15.176,-42.15c0,0.21 -0.178,0.383 -0.388,0.383c-0.21,0 -0.372,-0.173 -0.372,-0.383c0,-0.21 0.162,-0.382 0.372,-0.382c0.21,0 0.388,0.172 0.388,0.382Zm-10.986,68.626c0,0.21 -0.162,0.383 -0.372,0.383c-0.21,0 -0.388,-0.173 -0.388,-0.383c0,-0.21 0.178,-0.382 0.388,-0.382c0.21,0 0.372,0.171 0.372,0.382Zm-14.319,20.208c0,0.21 -0.162,0.382 -0.372,0.382c-0.21,0 -0.388,-0.172 -0.388,-0.382c0,-0.21 0.178,-0.382 0.388,-0.382c0.21,0 0.372,0.172 0.372,0.382Zm9.74,25.368c0,0.21 -0.162,0.382 -0.372,0.382c-0.21,0 -0.388,-0.171 -0.388,-0.382c0,-0.21 0.178,-0.382 0.388,-0.382c0.21,0 0.372,0.171 0.372,0.382Zm-18.234,15.819c0,0.209 -0.178,0.382 -0.388,0.382c-0.21,0 -0.372,-0.173 -0.372,-0.382c0,-0.21 0.162,-0.383 0.372,-0.383c0.21,0 0.388,0.173 0.388,0.383Zm14.076,56.635c0,0.21 -0.162,0.382 -0.372,0.382c-0.21,0 -0.388,-0.171 -0.388,-0.382c0,-0.21 0.178,-0.383 0.388,-0.383c0.21,0 0.372,0.173 0.372,0.383Zm-27.246,19.317c0,0.21 -0.162,0.382 -0.372,0.382c-0.21,0 -0.388,-0.171 -0.388,-0.382c0,-0.21 0.178,-0.383 0.388,-0.383c0.21,0 0.372,0.173 0.372,0.383Zm-27.02,149.812c0,0.209 -0.162,0.382 -0.372,0.382c-0.21,0 -0.388,-0.173 -0.388,-0.382c0,-0.21 0.178,-0.383 0.388,-0.383c0.21,0 0.372,0.173 0.372,0.383Zm17.345,-28.394c0,0.21 -0.178,0.382 -0.388,0.382c-0.21,0 -0.372,-0.172 -0.372,-0.382c0,-0.21 0.162,-0.383 0.372,-0.383c0.21,0 0.388,0.173 0.388,0.383Zm-28.945,63.482c0,0.21 -0.178,0.382 -0.388,0.382c-0.21,0 -0.372,-0.172 -0.372,-0.382c0,-0.21 0.162,-0.383 0.372,-0.383c0.21,0 0.388,0.173 0.388,0.383Zm-13.025,-21.943c0,0.209 -0.178,0.382 -0.388,0.382c-0.21,0 -0.372,-0.173 -0.372,-0.382c0,-0.21 0.162,-0.383 0.372,-0.383c0.21,0 0.388,0.173 0.388,0.383Zm53.603,-24.985c0,0.21 -0.162,0.383 -0.372,0.383c-0.21,0 -0.388,-0.173 -0.388,-0.383c0,-0.21 0.178,-0.382 0.388,-0.382c0.21,0 0.372,0.171 0.372,0.382Zm15.209,-20.301c0,0.21 -0.178,0.383 -0.372,0.383c-0.21,0 -0.388,-0.173 -0.388,-0.383c0,-0.21 0.178,-0.382 0.388,-0.382c0.194,0 0.372,0.172 0.372,0.382Zm30.369,-39.994c0,0.21 -0.162,0.384 -0.372,0.384c-0.21,0 -0.388,-0.173 -0.388,-0.384c0,-0.21 0.178,-0.382 0.388,-0.382c0.21,0 0.372,0.172 0.372,0.382Zm-14.465,-37.11c0,0.21 -0.162,0.382 -0.372,0.382c-0.21,0 -0.388,-0.172 -0.388,-0.382c0,-0.21 0.178,-0.382 0.388,-0.382c0.21,0 0.372,0.172 0.372,0.382Zm-113.694,44.331c0,0.209 -0.178,0.382 -0.388,0.382c-0.21,0 -0.372,-0.173 -0.372,-0.382c0,-0.21 0.162,-0.383 0.372,-0.383c0.21,0 0.388,0.173 0.388,0.383Zm-13.688,133.218c0,0.209 -0.178,0.382 -0.388,0.382c-0.21,0 -0.388,-0.173 -0.388,-0.382c0,-0.21 0.178,-0.383 0.388,-0.383c0.21,0 0.388,0.173 0.388,0.383Zm38.055,-17.336c0,0.212 -0.178,0.382 -0.388,0.382c-0.21,0 -0.372,-0.17 -0.372,-0.382c0,-0.21 0.162,-0.383 0.372,-0.383c0.21,0 0.388,0.173 0.388,0.383Zm-4.255,40.687c0,0.21 -0.178,0.382 -0.388,0.382c-0.21,0 -0.388,-0.172 -0.388,-0.382c0,-0.21 0.178,-0.382 0.388,-0.382c0.21,0 0.388,0.172 0.388,0.382Zm33.12,-13.618c0,0.21 -0.178,0.383 -0.388,0.383c-0.21,0 -0.372,-0.173 -0.372,-0.383c0,-0.21 0.162,-0.382 0.372,-0.382c0.21,0 0.388,0.172 0.388,0.382Zm40.174,-8.043c0,0.209 -0.162,0.382 -0.372,0.382c-0.21,0 -0.388,-0.173 -0.388,-0.382c0,-0.212 0.178,-0.383 0.388,-0.383c0.21,0 0.372,0.172 0.372,0.383Zm8.122,-16.908c0,0.21 -0.162,0.382 -0.372,0.382c-0.21,0 -0.388,-0.172 -0.388,-0.382c0,-0.21 0.178,-0.382 0.388,-0.382c0.21,0 0.372,0.171 0.372,0.382Zm10.889,44.056c0,0.21 -0.178,0.382 -0.388,0.382c-0.21,0 -0.372,-0.171 -0.372,-0.382c0,-0.21 0.162,-0.383 0.372,-0.383c0.21,0 0.388,0.173 0.388,0.383Zm14.594,-27.531c0,0.21 -0.162,0.383 -0.372,0.383c-0.21,0 -0.388,-0.173 -0.388,-0.383c0,-0.21 0.178,-0.382 0.388,-0.382c0.21,0 0.372,0.172 0.372,0.382Zm0.016,-56.083c0,0.21 -0.178,0.382 -0.388,0.382c-0.21,0 -0.388,-0.172 -0.388,-0.382c0,-0.21 0.178,-0.382 0.388,-0.382c0.21,0 0.388,0.172 0.388,0.382Zm0,-29.185c0,0.21 -0.178,0.383 -0.388,0.383c-0.21,0 -0.388,-0.173 -0.388,-0.383c0,-0.209 0.178,-0.382 0.388,-0.382c0.21,0 0.388,0.173 0.388,0.382Zm-22.765,-41.839c0,0.21 -0.162,0.382 -0.372,0.382c-0.21,0 -0.388,-0.172 -0.388,-0.382c0,-0.21 0.178,-0.382 0.388,-0.382c0.21,0 0.372,0.172 0.372,0.382Zm-87.273,211.859c0,0.21 -0.178,0.382 -0.388,0.382c-0.21,0 -0.372,-0.172 -0.372,-0.382c0,-0.21 0.162,-0.382 0.372,-0.382c0.21,0 0.388,0.171 0.388,0.382Zm13.332,-22.428c0,0.21 -0.178,0.382 -0.388,0.382c-0.21,0 -0.372,-0.172 -0.372,-0.382c0,-0.21 0.162,-0.383 0.372,-0.383c0.21,0 0.388,0.173 0.388,0.383Zm-86.771,-11.216c0,0.21 -0.178,0.382 -0.388,0.382c-0.21,0 -0.388,-0.172 -0.388,-0.382c0,-0.21 0.178,-0.382 0.388,-0.382c0.21,0 0.388,0.172 0.388,0.382Zm19.157,15.79c0,0.21 -0.162,0.382 -0.372,0.382c-0.21,0 -0.388,-0.172 -0.388,-0.382c0,-0.21 0.178,-0.383 0.388,-0.383c0.21,0 0.372,0.173 0.372,0.383Zm-13.057,-0.383c0,0.21 -0.162,0.383 -0.372,0.383c-0.21,0 -0.388,-0.173 -0.388,-0.383c0,-0.209 0.178,-0.382 0.388,-0.382c0.21,0 0.372,0.173 0.372,0.382Zm16.617,26.224c0,0.21 -0.178,0.383 -0.388,0.383c-0.21,0 -0.372,-0.173 -0.372,-0.383c0,-0.209 0.162,-0.382 0.372,-0.382c0.21,0 0.388,0.173 0.388,0.382Zm145.196,4.674c0,0.21 -0.178,0.383 -0.388,0.383c-0.21,0 -0.372,-0.173 -0.372,-0.383c0,-0.21 0.162,-0.382 0.372,-0.382c0.21,0 0.388,0.172 0.388,0.382Zm2.233,-19.372c0,0.21 -0.162,0.383 -0.372,0.383c-0.21,0 -0.388,-0.173 -0.388,-0.383c0,-0.209 0.178,-0.382 0.388,-0.382c0.21,0 0.372,0.173 0.372,0.382Zm-88.956,82.189c0,0.21 -0.162,0.383 -0.372,0.383c-0.21,0 -0.388,-0.173 -0.388,-0.383c0,-0.21 0.178,-0.382 0.388,-0.382c0.21,0 0.372,0.172 0.372,0.382Zm4.239,-17.919c0,0.21 -0.178,0.382 -0.388,0.382c-0.21,0 -0.372,-0.172 -0.372,-0.382c0,-0.21 0.162,-0.382 0.372,-0.382c0.21,0 0.388,0.172 0.388,0.382Zm57.163,30.434c0,0.21 -0.178,0.382 -0.388,0.382c-0.21,0 -0.388,-0.172 -0.388,-0.382c0,-0.21 0.178,-0.383 0.388,-0.383c0.21,0 0.388,0.173 0.388,0.383Zm12.038,-10.36c0,0.21 -0.178,0.383 -0.388,0.383c-0.21,0 -0.372,-0.173 -0.372,-0.383c0,-0.209 0.162,-0.382 0.372,-0.382c0.21,0 0.388,0.173 0.388,0.382Zm-153.383,-14.143c0,0.21 -0.162,0.382 -0.372,0.382c-0.21,0 -0.388,-0.172 -0.388,-0.382c0,-0.21 0.178,-0.382 0.388,-0.382c0.21,0 0.372,0.172 0.372,0.382Zm52.891,-70.584c0,0.21 -0.178,0.382 -0.388,0.382c-0.21,0 -0.388,-0.172 -0.388,-0.382c0,-0.21 0.178,-0.382 0.388,-0.382c0.21,0 0.388,0.172 0.388,0.382Zm27.052,-23.022c0,0.212 -0.162,0.383 -0.372,0.383c-0.21,0 -0.388,-0.172 -0.388,-0.383c0,-0.209 0.178,-0.382 0.388,-0.382c0.21,0 0.372,0.173 0.372,0.382Zm61.402,38.485c0,0.21 -0.178,0.382 -0.388,0.382c-0.21,0 -0.388,-0.171 -0.388,-0.382c0,-0.21 0.178,-0.383 0.388,-0.383c0.21,0 0.388,0.173 0.388,0.383Zm-26.195,-53.053c0,0.21 -0.162,0.382 -0.372,0.382c-0.21,0 -0.388,-0.172 -0.388,-0.382c0,-0.21 0.178,-0.383 0.388,-0.383c0.21,0 0.372,0.173 0.372,0.383Zm-94.068,-135.511c0,0.21 -0.162,0.383 -0.372,0.383c-0.21,0 -0.388,-0.173 -0.388,-0.383c0,-0.21 0.178,-0.382 0.388,-0.382c0.21,0 0.372,0.171 0.372,0.382Zm92.726,-158.797c0,0.21 -0.162,0.383 -0.372,0.383c-0.21,0 -0.388,-0.173 -0.388,-0.383c0,-0.209 0.178,-0.382 0.388,-0.382c0.21,0 0.372,0.173 0.372,0.382Zm-34.624,-13.521c0,0.21 -0.162,0.382 -0.372,0.382c-0.21,0 -0.388,-0.171 -0.388,-0.382c0,-0.21 0.178,-0.382 0.388,-0.382c0.21,0 0.372,0.171 0.372,0.382Zm17.264,-41.315c0,0.21 -0.178,0.382 -0.388,0.382c-0.21,0 -0.372,-0.171 -0.372,-0.382c0,-0.21 0.162,-0.382 0.372,-0.382c0.21,0 0.388,0.171 0.388,0.382Zm0.372,26.03c0,0.21 -0.162,0.382 -0.372,0.382c-0.21,0 -0.388,-0.172 -0.388,-0.382c0,-0.21 0.178,-0.382 0.388,-0.382c0.21,0 0.372,0.172 0.372,0.382Zm-119.568,130.672c0,0.21 -0.178,0.383 -0.388,0.383c-0.21,0 -0.388,-0.173 -0.388,-0.383c0,-0.21 0.178,-0.382 0.388,-0.382c0.21,0 0.388,0.172 0.388,0.382Zm-16.309,11.392c0,0.21 -0.178,0.383 -0.388,0.383c-0.21,0 -0.372,-0.173 -0.372,-0.383c0,-0.21 0.162,-0.382 0.372,-0.382c0.21,0 0.388,0.171 0.388,0.382Zm17.07,186.532c0,0.21 -0.178,0.383 -0.388,0.383c-0.21,0 -0.372,-0.173 -0.372,-0.383c0,-0.209 0.162,-0.382 0.372,-0.382c0.21,0 0.388,0.173 0.388,0.382Zm0,-22.634c0,0.21 -0.178,0.382 -0.388,0.382c-0.21,0 -0.372,-0.172 -0.372,-0.382c0,-0.21 0.162,-0.382 0.372,-0.382c0.21,0 0.388,0.172 0.388,0.382Zm-36.469,-7.113c0,0.21 -0.178,0.382 -0.388,0.382c-0.21,0 -0.388,-0.171 -0.388,-0.382c0,-0.21 0.178,-0.383 0.388,-0.383c0.21,0 0.388,0.173 0.388,0.383Zm-1.796,62.62c0,0.21 -0.162,0.382 -0.372,0.382c-0.21,0 -0.388,-0.172 -0.388,-0.382c0,-0.21 0.178,-0.383 0.388,-0.383c0.21,0 0.372,0.173 0.372,0.383Zm33.945,6.71c0,0.21 -0.162,0.382 -0.372,0.382c-0.21,0 -0.388,-0.172 -0.388,-0.382c0,-0.21 0.178,-0.382 0.388,-0.382c0.21,0 0.372,0.172 0.372,0.382Zm0.388,28.039c0,0.21 -0.178,0.383 -0.388,0.383c-0.21,0 -0.372,-0.173 -0.372,-0.383c0,-0.21 0.162,-0.382 0.372,-0.382c0.21,0 0.388,0.172 0.388,0.382Zm-12.766,13.418c0,0.21 -0.162,0.383 -0.372,0.383c-0.21,0 -0.388,-0.173 -0.388,-0.383c0,-0.21 0.178,-0.382 0.388,-0.382c0.21,0 0.372,0.172 0.372,0.382Zm-33.346,-11.237c0,0.21 -0.162,0.382 -0.372,0.382c-0.21,0 -0.388,-0.171 -0.388,-0.382c0,-0.21 0.178,-0.382 0.388,-0.382c0.21,0 0.372,0.171 0.372,0.382Zm-120.231,15.641c0,0.21 -0.162,0.382 -0.372,0.382c-0.21,0 -0.388,-0.172 -0.388,-0.382c0,-0.21 0.178,-0.382 0.388,-0.382c0.21,0 0.372,0.172 0.372,0.382Zm12.652,-24.692c0,0.21 -0.178,0.382 -0.388,0.382c-0.21,0 -0.372,-0.172 -0.372,-0.382c0,-0.21 0.162,-0.382 0.372,-0.382c0.21,0 0.388,0.172 0.388,0.382Zm-38.718,10.467c0,0.21 -0.162,0.382 -0.372,0.382c-0.21,0 -0.388,-0.171 -0.388,-0.382c0,-0.21 0.178,-0.382 0.388,-0.382c0.21,0 0.372,0.171 0.372,0.382Zm-3.608,-31.636c0,0.21 -0.178,0.382 -0.388,0.382c-0.21,0 -0.372,-0.172 -0.372,-0.382c0,-0.21 0.162,-0.382 0.372,-0.382c0.21,0 0.388,0.172 0.388,0.382Zm-54.935,5.82c0,0.21 -0.17,0.382 -0.382,0.382c-0.209,0 -0.382,-0.172 -0.382,-0.382c0,-0.21 0.173,-0.382 0.382,-0.382c0.212,0 0.382,0.172 0.382,0.382Zm22.527,-20.454c0,0.21 -0.162,0.383 -0.372,0.383c-0.21,0 -0.388,-0.173 -0.388,-0.383c0,-0.21 0.178,-0.382 0.388,-0.382c0.21,0 0.372,0.172 0.372,0.382Zm0.388,12.149c0,0.21 -0.178,0.382 -0.388,0.382c-0.21,0 -0.372,-0.172 -0.372,-0.382c0,-0.21 0.162,-0.382 0.372,-0.382c0.21,0 0.388,0.172 0.388,0.382Zm25.564,-28.394c0,0.21 -0.162,0.382 -0.372,0.382c-0.21,0 -0.388,-0.172 -0.388,-0.382c0,-0.21 0.178,-0.382 0.388,-0.382c0.21,0 0.372,0.171 0.372,0.382Zm-134.995,-42.593c0,0.21 -0.17,0.382 -0.38,0.382c-0.21,0 -0.382,-0.171 -0.382,-0.382c0,-0.21 0.172,-0.382 0.382,-0.382c0.21,0 0.38,0.172 0.38,0.382Zm-11.954,17.94c0,0.21 -0.172,0.382 -0.382,0.382c-0.21,0 -0.382,-0.171 -0.382,-0.382c0,-0.21 0.172,-0.382 0.382,-0.382c0.21,0 0.382,0.171 0.382,0.382Zm30.905,10.043c0,0.21 -0.17,0.382 -0.38,0.382c-0.21,0 -0.383,-0.171 -0.383,-0.382c0,-0.21 0.173,-0.382 0.383,-0.382c0.21,0 0.38,0.172 0.38,0.382Zm126.107,98.79c0,0.209 -0.162,0.382 -0.372,0.382c-0.21,0 -0.388,-0.173 -0.388,-0.382c0,-0.21 0.178,-0.383 0.388,-0.383c0.21,0 0.372,0.173 0.372,0.383Zm18.412,-24.117c0,0.21 -0.178,0.383 -0.388,0.383c-0.21,0 -0.388,-0.173 -0.388,-0.383c0,-0.21 0.178,-0.382 0.388,-0.382c0.21,0 0.388,0.172 0.388,0.382Zm-34.592,49.215c0,0.21 -0.162,0.383 -0.372,0.383c-0.21,0 -0.388,-0.173 -0.388,-0.383c0,-0.209 0.178,-0.382 0.388,-0.382c0.21,0 0.372,0.173 0.372,0.382Zm53.749,-11.549c0,0.21 -0.178,0.382 -0.388,0.382c-0.21,0 -0.372,-0.172 -0.372,-0.382c0,-0.21 0.162,-0.383 0.372,-0.383c0.21,0 0.388,0.173 0.388,0.383Zm17.053,-27.687c0,0.21 -0.178,0.383 -0.388,0.383c-0.21,0 -0.372,-0.173 -0.372,-0.383c0,-0.209 0.162,-0.382 0.372,-0.382c0.21,0 0.388,0.173 0.388,0.382Zm15.775,1.531c0,0.21 -0.178,0.382 -0.388,0.382c-0.21,0 -0.388,-0.172 -0.388,-0.382c0,-0.21 0.178,-0.383 0.388,-0.383c0.21,0 0.388,0.173 0.388,0.383Zm42.827,-199.17c0,0.209 -0.178,0.382 -0.388,0.382c-0.21,0 -0.372,-0.173 -0.372,-0.382c0,-0.21 0.162,-0.383 0.372,-0.383c0.21,0 0.388,0.173 0.388,0.383Zm55.027,56.09c0,0.21 -0.162,0.38 -0.372,0.38c-0.21,0 -0.388,-0.17 -0.388,-0.38c0,-0.212 0.178,-0.383 0.388,-0.383c0.21,0 0.372,0.172 0.372,0.383Zm-5.016,-124.109c0,0.209 -0.178,0.382 -0.388,0.382c-0.21,0 -0.388,-0.173 -0.388,-0.382c0,-0.21 0.178,-0.384 0.388,-0.384c0.21,0 0.388,0.173 0.388,0.384Zm31.955,10.633c0,0.21 -0.178,0.382 -0.388,0.382c-0.194,0 -0.372,-0.171 -0.372,-0.382c0,-0.21 0.178,-0.382 0.372,-0.382c0.21,0 0.388,0.171 0.388,0.382Zm-11.52,129.039c0,0.21 -0.178,0.383 -0.388,0.383c-0.21,0 -0.372,-0.173 -0.372,-0.383c0,-0.21 0.162,-0.382 0.372,-0.382c0.21,0 0.388,0.172 0.388,0.382Zm-40.012,14.502c0,0.21 -0.162,0.382 -0.372,0.382c-0.21,0 -0.388,-0.171 -0.388,-0.382c0,-0.21 0.178,-0.382 0.388,-0.382c0.21,0 0.372,0.172 0.372,0.382Zm-112.125,-75.075c0,0.21 -0.178,0.382 -0.388,0.382c-0.21,0 -0.372,-0.172 -0.372,-0.382c0,-0.21 0.162,-0.382 0.372,-0.382c0.21,0 0.388,0.172 0.388,0.382Zm-9.853,-11.08c0,0.209 -0.178,0.382 -0.388,0.382c-0.21,0 -0.374,-0.173 -0.374,-0.382c0,-0.21 0.164,-0.383 0.374,-0.383c0.21,0 0.388,0.173 0.388,0.383Zm9.465,-44.75c0,0.21 -0.162,0.383 -0.372,0.383c-0.21,0 -0.388,-0.173 -0.388,-0.383c0,-0.209 0.178,-0.382 0.388,-0.382c0.21,0 0.372,0.173 0.372,0.382Zm38.669,27.583c0,0.209 -0.162,0.382 -0.372,0.382c-0.21,0 -0.388,-0.173 -0.388,-0.382c0,-0.21 0.178,-0.383 0.388,-0.383c0.21,0 0.372,0.173 0.372,0.383Zm-22.668,30.748c0,0.21 -0.162,0.382 -0.372,0.382c-0.21,0 -0.388,-0.171 -0.388,-0.382c0,-0.21 0.178,-0.382 0.388,-0.382c0.21,0 0.372,0.171 0.372,0.382Zm-276.572,-24.397c0,0.21 -0.171,0.383 -0.38,0.383c-0.212,0 -0.382,-0.173 -0.382,-0.383c0,-0.209 0.17,-0.382 0.382,-0.382c0.209,0 0.38,0.173 0.38,0.382Zm-25.695,5.991c0,0.21 -0.172,0.382 -0.383,0.382c-0.207,0 -0.382,-0.171 -0.382,-0.382c0,-0.21 0.175,-0.382 0.382,-0.382c0.212,0 0.383,0.171 0.383,0.382Zm6.004,37.805c0,0.21 -0.172,0.383 -0.382,0.383c-0.209,0 -0.382,-0.173 -0.382,-0.383c0,-0.209 0.173,-0.382 0.382,-0.382c0.21,0 0.382,0.173 0.382,0.382Zm-131.871,20.823c0,0.209 -0.171,0.38 -0.382,0.38c-0.21,0 -0.382,-0.172 -0.382,-0.38c0,-0.21 0.172,-0.383 0.382,-0.383c0.21,0 0.382,0.173 0.382,0.383Zm14.122,31.969c0,0.209 -0.17,0.382 -0.38,0.382c-0.21,0 -0.382,-0.173 -0.382,-0.382c0,-0.21 0.172,-0.383 0.382,-0.383c0.21,0 0.38,0.173 0.38,0.383Zm409.756,-221.891c0,0.21 -0.162,0.382 -0.372,0.382c-0.21,0 -0.388,-0.171 -0.388,-0.382c0,-0.21 0.178,-0.382 0.388,-0.382c0.21,0 0.372,0.171 0.372,0.382Zm-422.373,-198.621c0,0.21 -0.172,0.382 -0.383,0.382c-0.209,0 -0.382,-0.172 -0.382,-0.382c0,-0.21 0.173,-0.382 0.382,-0.382c0.212,0 0.383,0.172 0.383,0.382Zm32.73,21.867c0,0.21 -0.171,0.382 -0.38,0.382c-0.21,0 -0.383,-0.171 -0.383,-0.382c0,-0.21 0.173,-0.382 0.383,-0.382c0.209,0 0.38,0.171 0.38,0.382Zm351.085,-17.136c0,0.21 -0.16,0.382 -0.371,0.382c-0.212,0 -0.388,-0.171 -0.388,-0.382c0,-0.21 0.176,-0.382 0.388,-0.382c0.21,0 0.371,0.171 0.371,0.382Zm76.823,-1.364c0,0.21 -0.162,0.382 -0.372,0.382c-0.21,0 -0.388,-0.171 -0.388,-0.382c0,-0.21 0.178,-0.38 0.388,-0.38c0.21,0 0.372,0.17 0.372,0.38Zm-11.714,42.486c0,0.21 -0.178,0.382 -0.388,0.382c-0.21,0 -0.372,-0.172 -0.372,-0.382c0,-0.21 0.162,-0.382 0.372,-0.382c0.21,0 0.388,0.172 0.388,0.382Zm114.6,-0.447c0,0.21 -0.162,0.38 -0.372,0.38c-0.21,0 -0.388,-0.17 -0.388,-0.38c0,-0.21 0.178,-0.382 0.388,-0.382c0.21,0 0.372,0.172 0.372,0.382Zm-454.827,-51.691c0,0.21 -0.17,0.382 -0.382,0.382c-0.209,0 -0.382,-0.172 -0.382,-0.382c0,-0.209 0.173,-0.38 0.382,-0.38c0.212,0 0.382,0.171 0.382,0.38Zm-225.766,4.281c0,0.21 -0.17,0.382 -0.382,0.382c-0.209,0 -0.383,-0.171 -0.383,-0.382c0,-0.21 0.175,-0.382 0.383,-0.382c0.212,0 0.382,0.172 0.382,0.382Zm-85.977,36.689c0,0.21 -0.17,0.382 -0.38,0.382c-0.21,0 -0.382,-0.171 -0.382,-0.382c0,-0.21 0.171,-0.382 0.382,-0.382c0.21,0 0.38,0.171 0.38,0.382Zm33.519,24.634c0,0.21 -0.17,0.382 -0.38,0.382c-0.21,0 -0.382,-0.171 -0.382,-0.382c0,-0.21 0.172,-0.382 0.382,-0.382c0.21,0 0.38,0.172 0.38,0.382Zm-16.969,316.881c0,0.21 -0.17,0.382 -0.382,0.382c-0.209,0 -0.382,-0.171 -0.382,-0.382c0,-0.21 0.173,-0.382 0.382,-0.382c0.212,0 0.382,0.171 0.382,0.382Zm16.587,60.445c0,0.212 -0.172,0.383 -0.379,0.383c-0.214,0 -0.383,-0.171 -0.383,-0.383c0,-0.209 0.17,-0.38 0.383,-0.38c0.207,0 0.379,0.172 0.379,0.38Zm604.966,-189.726c0,0.21 -0.162,0.382 -0.372,0.382c-0.21,0 -0.388,-0.172 -0.388,-0.382c0,-0.21 0.178,-0.382 0.388,-0.382c0.21,0 0.372,0.172 0.372,0.382Zm-305.946,-26.879c0,0.21 -0.17,0.382 -0.38,0.382c-0.21,0 -0.382,-0.171 -0.382,-0.382c0,-0.21 0.171,-0.382 0.382,-0.382c0.21,0 0.38,0.172 0.38,0.382Zm293.261,90.417c0,0.209 -0.162,0.382 -0.372,0.382c-0.21,0 -0.388,-0.173 -0.388,-0.382c0,-0.21 0.178,-0.382 0.388,-0.382c0.21,0 0.372,0.171 0.372,0.382Zm-96.819,35.742c0,0.21 -0.17,0.382 -0.38,0.382c-0.21,0 -0.382,-0.171 -0.382,-0.382c0,-0.21 0.172,-0.382 0.382,-0.382c0.21,0 0.38,0.172 0.38,0.382Zm101.463,-68.466c0,0.21 -0.178,0.382 -0.388,0.382c-0.21,0 -0.372,-0.171 -0.372,-0.382c0,-0.21 0.162,-0.382 0.372,-0.382c0.21,0 0.388,0.171 0.388,0.382Zm-143.753,145.769c0,0.209 -0.172,0.382 -0.382,0.382c-0.21,0 -0.382,-0.173 -0.382,-0.382c0,-0.212 0.171,-0.382 0.382,-0.382c0.21,0 0.382,0.17 0.382,0.382Zm-264.844,-89.527c0,0.21 -0.17,0.382 -0.379,0.382c-0.212,0 -0.382,-0.172 -0.382,-0.382c0,-0.21 0.17,-0.382 0.382,-0.382c0.209,0 0.379,0.172 0.379,0.382Zm57.855,-98.157c0,0.21 -0.17,0.382 -0.382,0.382c-0.209,0 -0.382,-0.171 -0.382,-0.382c0,-0.21 0.173,-0.382 0.382,-0.382c0.212,0 0.382,0.171 0.382,0.382Zm-134.797,-71.401c0,0.21 -0.17,0.382 -0.379,0.382c-0.212,0 -0.382,-0.172 -0.382,-0.382c0,-0.21 0.17,-0.382 0.382,-0.382c0.209,0 0.379,0.172 0.379,0.382Zm-29.719,5.637c0,0.21 -0.172,0.382 -0.382,0.382c-0.21,0 -0.382,-0.171 -0.382,-0.382c0,-0.21 0.172,-0.382 0.382,-0.382c0.21,0 0.382,0.171 0.382,0.382Zm0,-15.832c0,0.21 -0.172,0.382 -0.382,0.382c-0.21,0 -0.382,-0.171 -0.382,-0.382c0,-0.21 0.172,-0.382 0.382,-0.382c0.21,0 0.382,0.171 0.382,0.382Zm-210.664,32.324c0,0.21 -0.17,0.382 -0.38,0.382c-0.21,0 -0.383,-0.172 -0.383,-0.382c0,-0.21 0.173,-0.382 0.383,-0.382c0.21,0 0.38,0.172 0.38,0.382Zm-61.635,-33.958c0,0.21 -0.172,0.382 -0.382,0.382c-0.21,0 -0.382,-0.172 -0.382,-0.382c0,-0.21 0.172,-0.382 0.382,-0.382c0.21,0 0.382,0.172 0.382,0.382Zm-10.284,-34.024c0,0.21 -0.17,0.382 -0.38,0.382c-0.21,0 -0.382,-0.172 -0.382,-0.382c0,-0.21 0.172,-0.382 0.382,-0.382c0.21,0 0.38,0.171 0.38,0.382Zm32.081,-108.562c0,0.21 -0.17,0.382 -0.38,0.382c-0.21,0 -0.382,-0.171 -0.382,-0.382c0,-0.209 0.172,-0.382 0.382,-0.382c0.21,0 0.38,0.173 0.38,0.382Zm-39.918,-5.721c0,0.21 -0.17,0.382 -0.38,0.382c-0.21,0 -0.382,-0.172 -0.382,-0.382c0,-0.209 0.172,-0.382 0.382,-0.382c0.21,0 0.38,0.173 0.38,0.382Zm-17.149,33.468c0,0.21 -0.172,0.382 -0.382,0.382c-0.21,0 -0.382,-0.172 -0.382,-0.382c0,-0.21 0.172,-0.382 0.382,-0.382c0.21,0 0.382,0.172 0.382,0.382Zm20.954,43.111c0,0.21 -0.172,0.382 -0.38,0.382c-0.21,0 -0.383,-0.171 -0.383,-0.382c0,-0.209 0.173,-0.38 0.383,-0.38c0.209,0 0.38,0.172 0.38,0.38Zm20.134,-22.674c0,0.21 -0.17,0.382 -0.38,0.382c-0.21,0 -0.382,-0.171 -0.382,-0.382c0,-0.21 0.171,-0.382 0.382,-0.382c0.21,0 0.38,0.171 0.38,0.382Zm53.301,-26.556c0,0.21 -0.172,0.382 -0.382,0.382c-0.21,0 -0.382,-0.171 -0.382,-0.382c0,-0.21 0.172,-0.382 0.382,-0.382c0.21,0 0.382,0.171 0.382,0.382Zm-37.703,-43.74c0,0.21 -0.172,0.382 -0.38,0.382c-0.21,0 -0.383,-0.171 -0.383,-0.382c0,-0.21 0.173,-0.382 0.383,-0.382c0.209,0 0.38,0.171 0.38,0.382Zm-5.511,34.357c0,0.21 -0.171,0.382 -0.382,0.382c-0.21,0 -0.382,-0.171 -0.382,-0.382c0,-0.21 0.172,-0.382 0.382,-0.382c0.21,0 0.382,0.171 0.382,0.382Zm94.602,162.524c0,0.212 -0.17,0.382 -0.38,0.382c-0.21,0 -0.382,-0.17 -0.382,-0.382c0,-0.209 0.172,-0.38 0.382,-0.38c0.21,0 0.38,0.172 0.38,0.38Zm-44.677,-168.524c0,0.21 -0.171,0.382 -0.38,0.382c-0.21,0 -0.383,-0.172 -0.383,-0.382c0,-0.21 0.173,-0.38 0.383,-0.38c0.209,0 0.38,0.17 0.38,0.38Zm-57.496,-16.246c0,0.21 -0.172,0.38 -0.38,0.38c-0.21,0 -0.383,-0.17 -0.383,-0.38c0,-0.21 0.173,-0.382 0.383,-0.382c0.209,0 0.38,0.171 0.38,0.382Zm37.833,119.88c0,0.212 -0.172,0.382 -0.382,0.382c-0.21,0 -0.382,-0.17 -0.382,-0.382c0,-0.209 0.172,-0.38 0.382,-0.38c0.21,0 0.382,0.171 0.382,0.38Zm209.767,23.273c0,0.21 -0.17,0.382 -0.379,0.382c-0.212,0 -0.382,-0.172 -0.382,-0.382c0,-0.21 0.17,-0.382 0.382,-0.382c0.209,0 0.379,0.172 0.379,0.382Zm-3.802,17.854c0,0.212 -0.171,0.382 -0.382,0.382c-0.21,0 -0.382,-0.17 -0.382,-0.382c0,-0.209 0.172,-0.38 0.382,-0.38c0.21,0 0.382,0.171 0.382,0.38Zm16.979,-67.882c0,0.21 -0.172,0.382 -0.38,0.382c-0.212,0 -0.383,-0.171 -0.383,-0.382c0,-0.209 0.172,-0.38 0.383,-0.38c0.209,0 0.38,0.172 0.38,0.38Zm-0.87,20.59c0,0.21 -0.172,0.382 -0.382,0.382c-0.21,0 -0.382,-0.172 -0.382,-0.382c0,-0.209 0.172,-0.38 0.382,-0.38c0.21,0 0.382,0.171 0.382,0.38Zm-13.067,1.558c0,0.21 -0.171,0.382 -0.383,0.382c-0.209,0 -0.382,-0.171 -0.382,-0.382c0,-0.21 0.173,-0.38 0.382,-0.38c0.212,0 0.383,0.17 0.383,0.38Zm23.054,-45.986c0,0.21 -0.17,0.382 -0.379,0.382c-0.212,0 -0.382,-0.171 -0.382,-0.382c0,-0.21 0.17,-0.382 0.382,-0.382c0.209,0 0.379,0.171 0.379,0.382Zm12.903,24.983c0,0.209 -0.17,0.38 -0.38,0.38c-0.21,0 -0.382,-0.171 -0.382,-0.38c0,-0.212 0.172,-0.382 0.382,-0.382c0.21,0 0.38,0.17 0.38,0.382Zm-124.56,35.317c0,0.21 -0.172,0.382 -0.382,0.382c-0.21,0 -0.382,-0.172 -0.382,-0.382c0,-0.209 0.172,-0.38 0.382,-0.38c0.21,0 0.382,0.171 0.382,0.38Zm-8.248,23.87c0,0.21 -0.17,0.382 -0.379,0.382c-0.212,0 -0.383,-0.171 -0.383,-0.382c0,-0.209 0.172,-0.382 0.383,-0.382c0.209,0 0.379,0.173 0.379,0.382Zm-4.221,-33.958c0,0.21 -0.171,0.38 -0.383,0.38c-0.209,0 -0.382,-0.17 -0.382,-0.38c0,-0.21 0.173,-0.382 0.382,-0.382c0.212,0 0.383,0.171 0.383,0.382Zm20.856,117.422c0,0.21 -0.17,0.382 -0.379,0.382c-0.212,0 -0.382,-0.171 -0.382,-0.382c0,-0.21 0.17,-0.382 0.382,-0.382c0.209,0 0.379,0.171 0.379,0.382Zm-13.468,30.557c0,0.21 -0.17,0.382 -0.379,0.382c-0.212,0 -0.382,-0.171 -0.382,-0.382c0,-0.21 0.17,-0.382 0.382,-0.382c0.209,0 0.379,0.171 0.379,0.382Zm7.182,23.87c0,0.212 -0.17,0.382 -0.379,0.382c-0.212,0 -0.382,-0.17 -0.382,-0.382c0,-0.209 0.17,-0.38 0.382,-0.38c0.209,0 0.379,0.171 0.379,0.38Zm-7.562,25.392c0,0.21 -0.171,0.382 -0.38,0.382c-0.212,0 -0.383,-0.172 -0.383,-0.382c0,-0.21 0.172,-0.382 0.383,-0.382c0.209,0 0.38,0.172 0.38,0.382Zm-6.627,-16.406c0,0.21 -0.17,0.382 -0.38,0.382c-0.21,0 -0.383,-0.171 -0.383,-0.382c0,-0.21 0.173,-0.382 0.383,-0.382c0.21,0 0.38,0.171 0.38,0.382Zm20.475,-23.371c0,0.21 -0.17,0.382 -0.379,0.382c-0.212,0 -0.382,-0.172 -0.382,-0.382c0,-0.21 0.17,-0.382 0.382,-0.382c0.209,0 0.379,0.171 0.379,0.382Zm9.402,16.505c0,0.209 -0.171,0.382 -0.38,0.382c-0.21,0 -0.383,-0.173 -0.383,-0.382c0,-0.21 0.173,-0.382 0.383,-0.382c0.209,0 0.38,0.172 0.38,0.382Zm-40.32,29.963c0,0.21 -0.172,0.38 -0.38,0.38c-0.21,0 -0.383,-0.17 -0.383,-0.38c0,-0.21 0.173,-0.382 0.383,-0.382c0.209,0 0.38,0.171 0.38,0.382Zm-28.046,-43.544c0,0.21 -0.17,0.382 -0.38,0.382c-0.21,0 -0.383,-0.171 -0.383,-0.382c0,-0.21 0.173,-0.382 0.383,-0.382c0.21,0 0.38,0.171 0.38,0.382Zm-11.819,18.542c0,0.21 -0.17,0.382 -0.38,0.382c-0.21,0 -0.382,-0.172 -0.382,-0.382c0,-0.21 0.172,-0.382 0.382,-0.382c0.21,0 0.38,0.171 0.38,0.382Zm2.288,-43.866c0,0.21 -0.17,0.382 -0.38,0.382c-0.21,0 -0.382,-0.172 -0.382,-0.382c0,-0.21 0.172,-0.382 0.382,-0.382c0.21,0 0.38,0.171 0.38,0.382Zm-2.67,103.098c0,0.209 -0.17,0.38 -0.38,0.38c-0.21,0 -0.383,-0.172 -0.383,-0.38c0,-0.21 0.173,-0.382 0.383,-0.382c0.21,0 0.38,0.171 0.38,0.382Zm-20.652,-32.487c0,0.21 -0.17,0.382 -0.38,0.382c-0.21,0 -0.383,-0.172 -0.383,-0.382c0,-0.21 0.173,-0.382 0.383,-0.382c0.21,0 0.38,0.172 0.38,0.382Zm-125.727,96.099c0,0.209 -0.17,0.382 -0.38,0.382c-0.21,0 -0.382,-0.173 -0.382,-0.382c0,-0.212 0.172,-0.382 0.382,-0.382c0.21,0 0.38,0.17 0.38,0.382Zm3.119,-25.046c0,0.209 -0.172,0.38 -0.38,0.38c-0.21,0 -0.383,-0.172 -0.383,-0.38c0,-0.212 0.173,-0.382 0.383,-0.382c0.209,0 0.38,0.17 0.38,0.382Zm20.47,15.644c0,0.209 -0.17,0.38 -0.38,0.38c-0.21,0 -0.382,-0.172 -0.382,-0.38c0,-0.212 0.172,-0.382 0.382,-0.382c0.21,0 0.38,0.17 0.38,0.382Zm-4.632,37.975c0,0.209 -0.172,0.38 -0.38,0.38c-0.21,0 -0.383,-0.172 -0.383,-0.38c0,-0.212 0.173,-0.383 0.383,-0.383c0.209,0 0.38,0.172 0.38,0.383Zm4.252,37.55c0,0.207 -0.172,0.38 -0.38,0.38c-0.21,0 -0.384,-0.173 -0.384,-0.38c0,-0.212 0.173,-0.383 0.384,-0.383c0.209,0 0.38,0.171 0.38,0.383Zm24.815,-0.511c0,0.209 -0.17,0.38 -0.38,0.38c-0.21,0 -0.383,-0.172 -0.383,-0.38c0,-0.212 0.173,-0.382 0.383,-0.382c0.21,0 0.38,0.17 0.38,0.382Zm116.713,73.287c0,0.209 -0.171,0.38 -0.382,0.38c-0.21,0 -0.382,-0.172 -0.382,-0.38c0,-0.212 0.172,-0.382 0.382,-0.382c0.21,0 0.382,0.17 0.382,0.382Zm0.38,-45.405c0,0.209 -0.172,0.38 -0.38,0.38c-0.21,0 -0.383,-0.172 -0.383,-0.38c0,-0.212 0.173,-0.383 0.383,-0.383c0.209,0 0.38,0.172 0.38,0.383Zm-22.338,8.771c0,0.209 -0.17,0.382 -0.38,0.382c-0.21,0 -0.383,-0.173 -0.383,-0.382c0,-0.21 0.173,-0.382 0.383,-0.382c0.21,0 0.38,0.172 0.38,0.382Zm21.576,-104.648c0,0.209 -0.17,0.38 -0.38,0.38c-0.21,0 -0.383,-0.172 -0.383,-0.38c0,-0.212 0.173,-0.383 0.383,-0.383c0.21,0 0.38,0.172 0.38,0.383Zm-21.576,17.756c0,0.209 -0.17,0.382 -0.38,0.382c-0.21,0 -0.383,-0.173 -0.383,-0.382c0,-0.21 0.173,-0.382 0.383,-0.382c0.21,0 0.38,0.172 0.38,0.382Zm-68.707,41.553c0,0.209 -0.172,0.38 -0.382,0.38c-0.21,0 -0.382,-0.171 -0.382,-0.38c0,-0.212 0.172,-0.382 0.382,-0.382c0.21,0 0.382,0.17 0.382,0.382Zm-50.1,40.899c0,0.209 -0.172,0.382 -0.382,0.382c-0.21,0 -0.382,-0.173 -0.382,-0.382c0,-0.21 0.171,-0.382 0.382,-0.382c0.21,0 0.382,0.172 0.382,0.382Zm128.36,-296.498c0,0.21 -0.171,0.382 -0.382,0.382c-0.209,0 -0.382,-0.171 -0.382,-0.382c0,-0.209 0.173,-0.38 0.382,-0.38c0.21,0 0.382,0.172 0.382,0.38Zm-149.979,71.252c0,0.209 -0.17,0.38 -0.38,0.38c-0.21,0 -0.382,-0.171 -0.382,-0.38c0,-0.21 0.172,-0.382 0.382,-0.382c0.21,0 0.38,0.171 0.38,0.382Zm-5.14,-194.465c0,0.21 -0.172,0.382 -0.382,0.382c-0.21,0 -0.382,-0.171 -0.382,-0.382c0,-0.209 0.171,-0.38 0.382,-0.38c0.21,0 0.382,0.171 0.382,0.38Zm123.52,65.413c0,0.21 -0.17,0.382 -0.38,0.382c-0.21,0 -0.382,-0.172 -0.382,-0.382c0,-0.21 0.172,-0.382 0.382,-0.382c0.21,0 0.38,0.172 0.38,0.382Zm-34.532,28.968c0,0.21 -0.172,0.38 -0.382,0.38c-0.21,0 -0.382,-0.17 -0.382,-0.38c0,-0.21 0.171,-0.382 0.382,-0.382c0.21,0 0.382,0.171 0.382,0.382Zm-45.398,65.372c0,0.21 -0.171,0.382 -0.38,0.382c-0.21,0 -0.383,-0.171 -0.383,-0.382c0,-0.21 0.173,-0.382 0.383,-0.382c0.209,0 0.38,0.171 0.38,0.382Z"/></g></svg>