<?xml version="1.0" encoding="UTF-8" standalone="no"?><!DOCTYPE svg PUBLIC "-//W3C//DTD SVG 1.1//EN" "http://www.w3.org/Graphics/SVG/1.1/DTD/svg11.dtd"><svg width="100%" height="100%" viewBox="0 0 1200 750" version="1.1" xmlns="http://www.w3.org/2000/svg" xmlns:xlink="http://www.w3.org/1999/xlink" xml:space="preserve" xmlns:serif="http://www.serif.com/" style="fill-rule:evenodd;clip-rule:evenodd;stroke-linejoin:round;stroke-miterlimit:2;"><rect id="CityB" x="0" y="0" width="1200" height="750" style="fill:none;"/><clipPath id="_clip1"><rect x="0" y="0" width="1200" height="750"/></clipPath><g clip-path="url(#_clip1)"><path d="M625,749.346l-250,0l-62.5,0.654l0,-0.56l-75,0.56l0,-0.654l-25,0l0,0.654l-212.5,0l-0,-312.5l87.5,0l0,-25l25,-25l87.5,0l0,25l12.5,0l0,225l25,0l0,-224.571l12.5,-12.5l-0.248,-25l75.248,-0.429l0,100l37.5,0l0,-87.5l12.5,-12.5l87.5,0l0,150l50,0l25,50l0,-25.327l25,0.327l0,-137.5l50,0l0,87.5l25,0l0,212.5l87.5,0l0,-237.5l87.5,-0.429l0,-49.571l175,0l0,200l25,25l0,-275l75,0l0,75l24.54,0l-0.077,-50l25.537,-24.649l62.5,0l0,374.649l-79.545,-0.594l-45.455,0.594l0,-0.654l-337.5,0l0,0.654l-112.5,-0.654Z"/></g></svg>